<svg id="Layer_1" data-name="Layer 1" xmlns="http://www.w3.org/2000/svg" viewBox="0 0 320.76 325.73"><defs><style>.cls-1{fill:#1b75bc;}</style></defs><title>Global xchange new-52</title><path class="cls-1" d="M257.26,268.84H204a7,7,0,0,1-5-2.24l-32-31.68-6.45-6.44-18.22-18.22-6.45-6.45-14.57-14.57-6.45-6.45L96.65,164.57l-6.72-6.73L30.79,98.7a7.29,7.29,0,0,0-10.31-.07A7.36,7.36,0,0,0,19,100.7,157,157,0,0,0,5.56,164.29,154.75,154.75,0,0,0,43.4,265.76,7.17,7.17,0,0,0,56,261V207.74a7,7,0,0,1,2.24-5.05l26.63-26.63a7.45,7.45,0,0,1,10.37,0l8.13,8.13a7.45,7.45,0,0,1,0,10.37L84,213.34a7,7,0,0,0-2.24,5v34.75c0,6.45,7.85,9.81,12.33,5l36.44-36.44a7.45,7.45,0,0,1,10.37,0l8.13,8.13a7.45,7.45,0,0,1,0,10.37L95.25,294.07a7.29,7.29,0,0,0-.08,10.3,7.41,7.41,0,0,0,2.08,1.47A155.31,155.31,0,0,0,262,281.45a7.17,7.17,0,0,0-4.74-12.61Z"/><path class="cls-1" d="M277.72,62.55a7.17,7.17,0,0,0-12.61,4.76v53a7,7,0,0,1-2.24,5l-27.3,28c-2.71,2.16-6,1.17-8.64-1.44l-8.13-8.13a8.17,8.17,0,0,1-1-9.51L237.08,115a7,7,0,0,0,2.24-5V75.72c0-6.45-7.85-9.81-12.33-5l-41.48,41.49-6.45,6.44-18.22,18.22-6.73,6.45-9.53,9.53a7.45,7.45,0,0,1-10.37,0l-8.13-8.13a7.45,7.45,0,0,1,0-10.37l9.53-9.53,6.45-6.45,18.22-18.22,6.45-6.44,59.42-59.14c3.64-3.37,2.52-9.53-2-11.78A155.29,155.29,0,0,0,59.38,47.13c-5.05,4.2-2,12.61,4.76,12.61h53a7,7,0,0,1,5,2.24l26.63,26.63a7.2,7.2,0,0,1,.51,10.17l-.21.22-8.13,8.13a7.45,7.45,0,0,1-10.37,0L111.51,87.77a7,7,0,0,0-5.05-2.24H72c-6.45,0-9.81,7.85-5,12.33l41.49,41.48,6.44,6.45L133.09,164l6.45,6.45L154.11,185l6.45,6.45,18.22,18.22,6.45,6.44,24.38,24.39a7,7,0,0,0,5,2.24h34.75c6.45,0,9.81-7.85,5-12.33L206.6,182.35l-.12.13-6.4,6.52-9.53,9.53a7.45,7.45,0,0,1-10.37,0l-8.13-8.13a7.45,7.45,0,0,1,0-10.37l9.53-9.53L188,164l18.22-18.22.48-.48h0l83.6,84a7.29,7.29,0,0,0,10.31.07,7.36,7.36,0,0,0,1.47-2.07A155.3,155.3,0,0,0,277.72,62.55Z"/></svg>