<svg id="Layer_1" data-name="Layer 1" xmlns="http://www.w3.org/2000/svg" viewBox="0 0 420.48 181.44"><defs><style>.cls-1{fill:#182443;}.cls-2{isolation:isolate;}</style></defs><title>nvest-04</title><path class="cls-1" d="M9,5.05V176.89H179.7V5.05ZM163.18,91H122.29l5.4,6.28h35.49v6.78H133.52l.86,1,4.55,5.15h24.25V117H144.92l5.51,6.22h12.75v14.4h0v.94h0v21.56H124.46L93,123.25H25.47V117H87.64l-5.78-6.78H25.47V104H76.55l-5.79-6.77H25.47V91h40l-5.79-6.77H25.47V78.05H54.36L26.41,45.32l-.94-1.11V23.48H64.19l7.46,8.68L83,45.32l34.32,39.89v-.94h45.9Zm0-45.72V78.05h-45.9V23.48h45.9v21.8Z"/><g class="cls-2"><g class="cls-2"><path class="cls-1" d="M228.48,83.07q-2.91-4.87-6.49-10.46t-7.43-11.28q-3.84-5.69-7.82-11t-7.56-9.61V83.07H188.59V23.87h8.8q3.42,3.6,7.34,8.5t7.91,10.21q4,5.3,7.68,10.64t6.62,10V23.87h10.68v59.2Z"/></g><g class="cls-2"><path class="cls-1" d="M262.8,83.07q-4.29-8.79-8.79-20.2a254,254,0,0,1-8.19-24.47h11q.95,3.75,2.19,8.07c.82,2.87,1.71,5.75,2.65,8.63s1.92,5.66,2.92,8.37,1.93,5.14,2.79,7.3c.86-2.16,1.77-4.6,2.74-7.3S272.06,58,273,55.1s1.84-5.76,2.7-8.63,1.6-5.57,2.23-8.07h10.68a256.77,256.77,0,0,1-8.19,24.47q-4.51,11.4-8.79,20.2Z"/></g><g class="cls-2"><path class="cls-1" d="M292.71,61a28,28,0,0,1,1.75-10.34,21.77,21.77,0,0,1,4.66-7.39,19.27,19.27,0,0,1,6.66-4.44,20.6,20.6,0,0,1,7.69-1.5q9.22,0,14.39,5.73T333,60.09c0,.57,0,1.21,0,1.92s-.08,1.36-.13,1.93H303.39a11.75,11.75,0,0,0,3.8,8.32q3.38,3,9.78,2.95a32.61,32.61,0,0,0,6.88-.68,29.31,29.31,0,0,0,4.91-1.45l1.36,8.45a15.66,15.66,0,0,1-2.34.9,32.84,32.84,0,0,1-3.42.85c-1.28.26-2.66.47-4.14.64a37.62,37.62,0,0,1-4.53.26,27.32,27.32,0,0,1-10.25-1.75,19.08,19.08,0,0,1-7.18-4.87,19.93,19.93,0,0,1-4.18-7.35A29.94,29.94,0,0,1,292.71,61Zm30-4.62a13.5,13.5,0,0,0-.6-4,9.58,9.58,0,0,0-1.75-3.34,8.43,8.43,0,0,0-2.82-2.22,9,9,0,0,0-4-.81,9.19,9.19,0,0,0-4.18.9,9.58,9.58,0,0,0-3,2.35,11,11,0,0,0-1.92,3.33,18.25,18.25,0,0,0-.94,3.84Z"/><path class="cls-1" d="M355.15,75.64a13.65,13.65,0,0,0,6-1A3.5,3.5,0,0,0,363,71.28a4.37,4.37,0,0,0-2-3.67,29.14,29.14,0,0,0-6.62-3.16,50.4,50.4,0,0,1-5.16-2.18,17.79,17.79,0,0,1-4.06-2.69,10.94,10.94,0,0,1-2.69-3.72,12.87,12.87,0,0,1-1-5.34A11.62,11.62,0,0,1,346,40.83q4.53-3.54,12.3-3.55a41.15,41.15,0,0,1,12.9,2.14l-1.88,8.37A25.91,25.91,0,0,0,365,46.38a26.23,26.23,0,0,0-6.15-.64,10.74,10.74,0,0,0-5.13,1.07,3.5,3.5,0,0,0-2,3.29,4.66,4.66,0,0,0,.38,2,4.28,4.28,0,0,0,1.32,1.58,13.88,13.88,0,0,0,2.48,1.46,39.32,39.32,0,0,0,3.76,1.49,57.71,57.71,0,0,1,6.24,2.69,16.92,16.92,0,0,1,4.22,3,10.24,10.24,0,0,1,2.44,3.8,15.27,15.27,0,0,1,.77,5.13q0,6.4-4.74,9.69t-13.54,3.29a37.41,37.41,0,0,1-9.49-1,49.21,49.21,0,0,1-5-1.58L342.34,73a44.23,44.23,0,0,0,5.51,1.79A28.34,28.34,0,0,0,355.15,75.64Z"/><path class="cls-1" d="M382.49,26.61l10.33-1.71V38.4h15.89V47H392.82v18.2c0,3.58.57,6.15,1.71,7.68s3.07,2.31,5.81,2.31a18.8,18.8,0,0,0,5-.6,31.27,31.27,0,0,0,3.46-1.11l1.71,8.2a36.85,36.85,0,0,1-4.7,1.58,25.51,25.51,0,0,1-6.83.82,21.53,21.53,0,0,1-8-1.29,11.77,11.77,0,0,1-5.08-3.71,14.86,14.86,0,0,1-2.65-5.9,36.77,36.77,0,0,1-.76-7.9Z"/></g></g><g class="cls-2"><g class="cls-2"><path class="cls-1" d="M231.88,148.3v12.43h-43V96.43H203.4V148.3Z"/></g><g class="cls-2"><path class="cls-1" d="M287.18,160.73c-.71-2.23-1.48-4.53-2.3-6.88s-1.65-4.7-2.46-7H257.3c-.81,2.35-1.63,4.7-2.44,7.06s-1.58,4.64-2.28,6.86h-15q3.63-10.39,6.88-19.21t6.38-16.61q3.12-7.78,6.14-14.8t6.29-13.68H277q3.17,6.67,6.24,13.68t6.2,14.8q3.12,7.8,6.39,16.61t6.9,19.21ZM269.79,111c-.32.93-.79,2.2-1.42,3.81s-1.33,3.46-2.12,5.57-1.68,4.42-2.66,7-2,5.19-3,8H279c-1-2.79-1.94-5.46-2.86-8s-1.8-4.86-2.63-7-1.55-4-2.18-5.57S270.18,111.91,269.79,111Z"/><path class="cls-1" d="M332.38,161.57q-5.29,0-10.53-.33a75.61,75.61,0,0,1-10.91-1.53V97.35a94.92,94.92,0,0,1,9.75-1.25q5.28-.42,9.83-.42a66.77,66.77,0,0,1,11.28.89,26.88,26.88,0,0,1,8.86,3,15.89,15.89,0,0,1,5.8,5.62,16.43,16.43,0,0,1,2.08,8.58q0,7.69-7.42,12.15,6.13,2.32,8.35,6.31a18.09,18.09,0,0,1,2.23,9q0,10.13-7.38,15.22T332.38,161.57Zm-7.33-39.9h7.05c4.45,0,7.64-.58,9.56-1.72a5.94,5.94,0,0,0,2.87-5.52c0-2.6-1-4.42-3-5.48s-4.88-1.57-8.72-1.57c-1.24,0-2.57,0-4,0s-2.69.11-3.8.23Zm0,11v16.61c1.05.12,2.19.22,3.43.28s2.6.09,4.08.09a25,25,0,0,0,10.49-1.86q4-1.85,4-6.86,0-4.46-3.34-6.36c-2.23-1.27-5.41-1.9-9.56-1.9Z"/><path class="cls-1" d="M390.84,149.69a20.84,20.84,0,0,0,5.05-.51,9.23,9.23,0,0,0,3.2-1.39,4.66,4.66,0,0,0,1.67-2.09,7.41,7.41,0,0,0,.47-2.69,6.24,6.24,0,0,0-3-5.25q-3-2.08-10.21-4.5c-2.1-.74-4.21-1.59-6.31-2.55a23.17,23.17,0,0,1-5.66-3.62A17.15,17.15,0,0,1,372,121.8a16.57,16.57,0,0,1-1.58-7.56,18.74,18.74,0,0,1,1.67-8,17.24,17.24,0,0,1,4.73-6.08,21.8,21.8,0,0,1,7.43-3.85,33.14,33.14,0,0,1,9.83-1.35,39.22,39.22,0,0,1,19,4.46l-4.18,11.41a39.64,39.64,0,0,0-6-2.46,26,26,0,0,0-7.94-1.07q-5.19,0-7.47,1.44a4.87,4.87,0,0,0-2.27,4.41,5.17,5.17,0,0,0,.83,3,8.25,8.25,0,0,0,2.37,2.18A20.38,20.38,0,0,0,392,120c1.33.53,2.79,1.07,4.4,1.63,3.34,1.23,6.25,2.46,8.73,3.66a23.66,23.66,0,0,1,6.17,4.22,15.4,15.4,0,0,1,3.66,5.66,22.88,22.88,0,0,1,1.21,7.89q0,9-6.31,14t-19,5a52.83,52.83,0,0,1-7.71-.51,50.31,50.31,0,0,1-6.07-1.25,34.91,34.91,0,0,1-4.55-1.58,33,33,0,0,1-3.2-1.58l4.08-11.5a35,35,0,0,0,17.45,4.08Z"/></g></g></svg>