<svg id="Layer_1" data-name="Layer 1" xmlns="http://www.w3.org/2000/svg" viewBox="0 0 583.2 574.56"><defs><style>.cls-1{fill:#182443;}</style></defs><title>Nvest Dna final-02</title><path class="cls-1" d="M193.84,228.72v10.57L237,289.8H193.84v9.28H244.9l8.63,10.11H193.84v9.29h67.62l8.63,10.11H193.84v9.28H278L286.65,348H193.84v9.28H294.58l47,55.09h57.8v-32.2h0v-1.41h0V357.27h-19L372.15,348h27.26V337.87h-36.2l-6.79-7.69-1.29-1.5h44.28V318.57h-53l-8.07-9.38h61.05V299.08h-68.5v1.42l-61.74-71.78-17.51-20.37h-57.8Z"/><polygon class="cls-1" points="330.89 228.72 330.89 266.08 330.89 289.8 399.41 289.8 399.41 228.72 399.41 208.35 330.89 208.35 330.89 228.72"/><path class="cls-1" d="M418.2,45c-.05,1.28-.08,2.57-.12,3.84q-.18,5.14-.35,10.25A371.64,371.64,0,0,1,456.5,68.5,275.45,275.45,0,0,0,418.2,45Z"/><path class="cls-1" d="M518,191.47q5.44.57,11,1.1c5,.49,10.12,1,15.18,1.54.84-4.6,1.6-9.23,2.23-13.88a275.51,275.51,0,0,0-26-46.27C523.69,152.33,521.68,171.82,518,191.47Z"/><path class="cls-1" d="M505.55,222.09l2.81.33,2.81.32c4.95.54,9.86,1,14.69,1.49q5.88.57,11.58,1.15l2.81.3,2.81.32c6.7.75,13.19,1.62,19.44,2.74a269.16,269.16,0,0,0-8-27.72q-2.91-.39-5.83-.74l-2.8-.32-2.8-.32c-4.9-.53-9.8-1-14.68-1.49q-5.79-.56-11.51-1.14l-2.81-.31-2.8-.31c-20.91-2.37-40.74-5.9-57.78-15.09l66.14-48.44q-3.78-5.37-7.79-10.54l-70.09,51.35a82.19,82.19,0,0,1-12.31-11.86l71.66-52.5q-4.35-4.95-8.94-9.69L422,151a72.7,72.7,0,0,1-6-16.47l64-46.85q-5-4.53-10.13-8.82l-56.43,41.33c-2.12-16.69-2-36.11-1.4-56.51,0-1,0-1.89.08-2.84l.09-2.84c.1-3.1.21-6.22.31-9.35.07-2.11.14-4.25.2-6.37A274.45,274.45,0,0,0,386.85,31.5c-.15,5.44-.33,10.87-.51,16.26l-.18,5.33L386,56c0,1-.06,1.9-.09,2.84-1.41,44.89-1.26,86.55,18.72,113.82C431.08,208.71,469.08,217.71,505.55,222.09Z"/><path class="cls-1" d="M569.55,290l-30.88,22.6,7.75,10.57,22.7-16.63c.28-5.15.44-10.34.44-15.57C569.56,290.64,569.55,290.31,569.55,290Z"/><path class="cls-1" d="M208.85,52c21.05-4.09,42.22-8.82,62-16.17a71.56,71.56,0,0,0,23.85-15,71.6,71.6,0,0,0,23.86,15c19.75,7.35,40.93,12.08,62,16.17l.15-4.46c.2-5.95.39-12,.55-18a274.93,274.93,0,0,0-81.26-14c-2.07,0-4.15-.07-6.24-.08-1.47,0-2.93,0-4.4.05A275.8,275.8,0,0,0,208.13,29c.16,6.22.36,12.43.57,18.58Z"/><path class="cls-1" d="M171.29,48.87c0-1.57-.1-3.17-.15-4.75a275.61,275.61,0,0,0-41.62,25.49c12.87-4.29,27.17-7.53,42.11-10.49C171.53,55.72,171.41,52.3,171.29,48.87Z"/><path class="cls-1" d="M49.11,225.68l2.81-.3q5.71-.58,11.59-1.15c4.83-.47,9.74-.95,14.69-1.49l2.81-.32c.93-.11,1.87-.21,2.8-.33,36.48-4.38,74.48-13.38,100.91-49.47,20-27.27,20.14-68.93,18.73-113.82l-.09-2.8-.09-2.84-.18-5.33c-.19-5.6-.37-11.25-.53-16.91a274.16,274.16,0,0,0-25.88,10.57c.07,2.41.14,4.83.22,7.23.11,3.13.21,6.25.32,9.35,0,1,.06,1.89.08,2.84l.09,2.84c.59,20.4.72,39.82-1.4,56.51l-57.43-42.1q-5.19,4.28-10.17,8.78l65,47.62a72.7,72.7,0,0,1-6,16.47L96.11,98.82q-4.6,4.73-9,9.67l72.79,53.32a82.19,82.19,0,0,1-12.31,11.86L76.32,121.45q-3.39,4.33-6.62,8.82L68.49,132a275.76,275.76,0,0,0-25.9,45c.7,5.74,1.61,11.45,2.65,17.13,5.06-.56,10.13-1,15.18-1.54l11-1.1c-3.81-20.18-5.82-40.18-2.16-59l66.63,48.8c-17.07,9.2-36.89,12.71-57.8,15.1l-2.81.31-2.8.31q-5.72.59-11.51,1.14c-4.88.48-9.78,1-14.68,1.49l-2.8.32-2.8.32c-2.61.31-5.21.65-7.8,1a270.78,270.78,0,0,0-8,27.81c6.84-1.3,14-2.27,21.37-3.1Z"/><path class="cls-1" d="M50.69,312.6,18,288.63V291q0,7.11.36,14.14L43,323.17Z"/><path class="cls-1" d="M85.19,305c5.64-23.12.53-49.33-5.72-76.75-5.2.57-10.35,1.07-15.42,1.57-3.67.36-7.29.71-10.86,1.08,4.44,19.29,8.29,37.07,8.21,52.43l-40.89-30c-.68,5-1.24,10-1.65,15l40.9,30A43,43,0,0,1,52.7,314,89.75,89.75,0,0,1,34.23,332.7l-6.87-.08-7-5.13q.86,6.56,2,13,.5,2.76,1.06,5.51,1.63,8.08,3.76,16c.43,1.63.87,3.27,1.33,4.89A275.5,275.5,0,0,0,109.46,496c14,4.65,28.38,8.38,42.77,11.78.11-1.48.21-3,.33-4.45.54-7.29,1.08-14.66,1.55-22-18.4-4.44-36.63-9.47-53.05-16.34a46,46,0,0,1-14.2-9.59l70-47.06a61.19,61.19,0,0,1,3.71,17.32c1,16.6.47,33.95-.56,51.31l-.18,2.84c-.06.95-.11,1.9-.17,2.84-.47,7.08-1,14.14-1.51,21.14l-.39,5.32-.21,2.84c-.07.94-.14,1.89-.2,2.83q-.56,7.69-1,15.22a271.72,271.72,0,0,0,25.58,13c.29-7.22.74-14.66,1.27-22.23.07-.95.13-1.89.2-2.84s.13-1.89.2-2.84q.35-4.64.69-9.32.63-8.5,1.23-17.13c.07-.94.14-1.89.2-2.84l.18-2.84c1.25-19.62,2-39.46.83-58.85C183.17,365.26,117.66,322.62,85.19,305ZM73.84,329.56c.15-.21.28-.42.43-.62a297,297,0,0,1,34.18,21.93c.47.34.93.7,1.4,1.06l-52.7,35.43a302.1,302.1,0,0,1-4.57-35.71A115.28,115.28,0,0,0,73.84,329.56Zm46.67,31c4.26,3.68,8.51,7.64,12.55,11.86L65.2,418c-1.93-5.49-3.6-11.18-5-16.91ZM78.43,445.21a100.51,100.51,0,0,1-8.25-14.75l71.6-48.14a107.7,107.7,0,0,1,9.48,13.92Z"/><path class="cls-1" d="M556.76,333.92a90.68,90.68,0,0,1-20.09-19.84,42.6,42.6,0,0,1-7.06-15.71l39.14-28.68q-.59-7.6-1.58-15.08L528,283.33c-.08-15.36,3.78-33.14,8.21-52.43-3.57-.37-7.19-.72-10.86-1.08-5.07-.5-10.21-1-15.41-1.57-6.54,28.68-11.83,56-4.87,79.9-33.47,18.7-94.53,60.37-98,117-1.17,19.39-.42,39.23.84,58.85.06,1,.11,1.9.18,2.84s.13,1.89.19,2.84q.6,8.61,1.24,17.13.35,4.68.69,9.32c.06,1,.13,1.9.2,2.84s.13,1.89.2,2.84c.43,6.19.81,12.28,1.09,18.25a273.54,273.54,0,0,0,25.46-13.72c-.22-3.48-.46-7-.71-10.49-.07-.94-.13-1.89-.21-2.83s-.13-1.89-.2-2.84c-.13-1.77-.27-3.54-.4-5.32-.52-7-1-14.06-1.5-21.14-.06-.94-.11-1.89-.17-2.84l-.18-2.84c-1-17.36-1.57-34.71-.56-51.31a61.19,61.19,0,0,1,3.71-17.32l70,47.06a45.83,45.83,0,0,1-14.19,9.59c-16.43,6.87-34.66,11.9-53.05,16.34.47,7.37,1,14.74,1.55,22l.33,4.45c10.31-2.44,20.65-5,30.82-8a276.42,276.42,0,0,0,75.65-103c.18-.43.35-.87.53-1.31A271.69,271.69,0,0,0,559.2,366q2.67-9.41,4.67-19.07.76-3.72,1.44-7.48c.33-1.89.65-3.78.94-5.69.25-1.6.47-3.19.69-4.79l-6.63,4.86ZM515.37,446.39l-72.83-49A108.26,108.26,0,0,1,452,383.5l71.59,48.14A99.82,99.82,0,0,1,515.37,446.39Zm13.23-27.18-67.87-45.63a172.2,172.2,0,0,1,12.56-11.86l60.34,40.58c-1.44,5.7-3.11,11.42-5,16.91Zm8-30.67L484,353.11c.46-.36.93-.72,1.39-1.06A296.79,296.79,0,0,1,517,331.51a117,117,0,0,0,24.06,23.39,302,302,0,0,1-4.41,33.64Z"/><path class="cls-1" d="M403.92,507.25q-.6-8.07-1.18-16.25c-43.66,10.29-83.46,22.28-105.44,54.29l-.32-.49c-21.88-32.54-62-44.62-105.93-55-.37,5.45-.77,10.87-1.17,16.26q-.39,5.13-.76,10.22c20.78,5,40.28,10.49,56.22,18.51L215.12,555.1q8.34,2.48,16.88,4.44l25.84-17.38a70.72,70.72,0,0,1,13,11.55l-15.11,10.15q10.11,1.39,20.44,2c1,.06,2.06.14,3.1.19,2.22.12,4.45.2,6.68.26q3.89.12,7.78.12,7.26,0,14.43-.37,3.63-.19,7.24-.47h0q10.14-.78,20.06-2.29l-12.57-8.45a70.72,70.72,0,0,1,13-11.55l22.9,15.4q8.44-2,16.68-4.58l-27-18.12c15.93-8,35.43-13.52,56.21-18.51C404.43,514.09,404.17,510.68,403.92,507.25Z"/></svg>