<svg id="Layer_1" data-name="Layer 1" xmlns="http://www.w3.org/2000/svg" viewBox="0 0 855.36 609.12"><defs><style>.cls-1{isolation:isolate;}.cls-2{fill:#182443;}.cls-3{fill:#2d476f;}.cls-4{fill:#375382;}.cls-5{fill:#223b5e;}.cls-6{fill:#112742;}.cls-7{fill:#1a3050;}</style></defs><title>snap-03</title><g class="cls-1"><g class="cls-1"><path class="cls-2" d="M93.47,412.83a78.38,78.38,0,0,0,18.94-1.91,34.85,34.85,0,0,0,12-5.21,17.56,17.56,0,0,0,6.26-7.82,28.05,28.05,0,0,0,1.73-10.08q0-11.81-11.12-19.63T83.05,351.32q-11.82-4.17-23.63-9.55a87,87,0,0,1-21.2-13.56,64.86,64.86,0,0,1-15.29-19.8Q17,296.77,17,280.09A70.14,70.14,0,0,1,23.28,250,64.17,64.17,0,0,1,41,227.27a81.06,81.06,0,0,1,27.8-14.42q16.33-5,36.84-5,24.31,0,42,5.21t29.19,11.47l-15.63,42.74A150,150,0,0,0,138.82,258q-12.33-4-29.71-4-19.45,0-28,5.38t-8.51,16.51A19.1,19.1,0,0,0,75.75,287a30.46,30.46,0,0,0,8.86,8.16,77.46,77.46,0,0,0,13.21,6.61q7.47,3,16.5,6.08,18.77,6.94,32.67,13.72a87.5,87.5,0,0,1,23.11,15.81,57.39,57.39,0,0,1,13.72,21.2q4.52,12.17,4.52,29.54,0,33.7-23.63,52.29T93.47,459a198,198,0,0,1-28.84-1.91,186,186,0,0,1-22.76-4.69,126.35,126.35,0,0,1-29-11.81l15.29-43.09a136.06,136.06,0,0,0,26.58,10.6Q70.54,412.82,93.47,412.83Z"/><path class="cls-2" d="M542.42,266.54q22.94,0,38.22,5.21t24.5,14.94a55.09,55.09,0,0,1,13,23.63A116.54,116.54,0,0,1,622,341.25V449q-11.12,2.43-30.92,5.73t-48,3.3A152.36,152.36,0,0,1,511,454.88a69.64,69.64,0,0,1-24.85-10.26,46.75,46.75,0,0,1-16-18.59q-5.56-11.46-5.56-28.14,0-16,6.43-27.11a49.44,49.44,0,0,1,17.2-17.72,77.73,77.73,0,0,1,24.67-9.56,139,139,0,0,1,28.84-2.95,163.53,163.53,0,0,1,17.9.87,79.5,79.5,0,0,1,12.68,2.26v-4.87q0-13.2-8-21.19t-27.8-8a176.11,176.11,0,0,0-26.06,1.92,111.94,111.94,0,0,0-22.24,5.38l-6.6-41.7q4.5-1.38,11.29-3t14.77-2.78q8-1.22,16.85-2.09T542.42,266.54ZM546.59,418q7.63,0,14.59-.35a99.68,99.68,0,0,0,11.12-1V377.38q-3.12-.69-9.38-1.39a105.21,105.21,0,0,0-11.47-.69,102.37,102.37,0,0,0-13.72.87,35.9,35.9,0,0,0-11.3,3.3,19.34,19.34,0,0,0-7.64,6.6A18.36,18.36,0,0,0,516,396.5q0,12.17,8.16,16.85T546.59,418Z"/><path class="cls-2" d="M838.82,362.79a133.73,133.73,0,0,1-5.21,38.57,86.65,86.65,0,0,1-15.29,29.89,69.24,69.24,0,0,1-25,19.46q-14.94,6.94-34.4,6.94a92.74,92.74,0,0,1-20.15-2.08,96.49,96.49,0,0,1-18.07-5.91v68.8H668.9V277.66q6.95-2.09,16-4t18.94-3.3Q713.73,269,724,268.1t19.63-.87q22.59,0,40.31,6.78a82.83,82.83,0,0,1,29.88,19.11,81.77,81.77,0,0,1,18.59,30.06Q838.83,340.9,838.82,362.79ZM786,364.18q0-24-10.77-38.4t-32-14.42q-6.94,0-12.85.52t-9.73,1.22v93.47a44.8,44.8,0,0,0,12.68,5.22,61.07,61.07,0,0,0,15.81,2.08Q786,413.87,786,364.18Z"/></g></g><path class="cls-2" d="M230.75,272.69v10.13l41.3,48.37h-41.3v8.88h48.89l8.27,9.69H230.75v8.89h64.74l8.27,9.68h-73v8.89h80.6l8.27,9.69H230.75v8.89h96.46l45,52.75H427.6V417.73h0v-1.35h0V395.8H409.37l-7.87-8.89h26.1v-9.69H392.94q-3.3-3.72-6.51-7.36l-1.23-1.44h42.4v-9.68H376.87l-7.73-9H427.6v-9.69H362v1.36l-59.12-68.74-16.77-19.5H230.75Z"/><polygon class="cls-2" points="361.98 272.69 361.98 308.47 361.98 331.19 427.6 331.19 427.6 272.69 427.6 253.19 361.98 253.19 361.98 272.69"/><g class="cls-1"><path class="cls-2" d="M200.94,489.78q4.4-1.21,11.45-2.73a89.75,89.75,0,0,1,18.28-1.52q14.85,0,21.53,8.64c.5-.4,1.49-1.08,3-2a41.46,41.46,0,0,1,5.53-3,43.06,43.06,0,0,1,7.81-2.58,43.54,43.54,0,0,1,9.94-1.06q8.94,0,14.48,2.65a20.27,20.27,0,0,1,8.57,7.44,29.92,29.92,0,0,1,4.09,11.45,92.5,92.5,0,0,1,1.06,14.55v43.83h-9.86V524.81a113.29,113.29,0,0,0-.68-13.42,25.72,25.72,0,0,0-2.73-9.41,13.36,13.36,0,0,0-5.84-5.61,22.1,22.1,0,0,0-9.85-1.89,38.21,38.21,0,0,0-8.27.83,34.68,34.68,0,0,0-6.44,2.05,27.37,27.37,0,0,0-4.48,2.43c-1.16.81-2,1.41-2.5,1.82a47.08,47.08,0,0,1,2.05,8.87,76.52,76.52,0,0,1,.68,10.39v44.58h-9.86V524.81a113.29,113.29,0,0,0-.68-13.42,24.94,24.94,0,0,0-2.8-9.41,13.82,13.82,0,0,0-6-5.61,23.49,23.49,0,0,0-10.24-1.89,80.49,80.49,0,0,0-12.06.76,31.79,31.79,0,0,0-6.29,1.36v68.85h-9.86Z"/><path class="cls-2" d="M398.69,526.32A50.72,50.72,0,0,1,396,543.16a37.68,37.68,0,0,1-7.43,12.89,33.82,33.82,0,0,1-11.3,8.26,36.53,36.53,0,0,1-28.81,0,33.72,33.72,0,0,1-11.3-8.26,37.36,37.36,0,0,1-7.43-12.89,54.6,54.6,0,0,1,0-33.67,38.16,38.16,0,0,1,7.43-13,33.44,33.44,0,0,1,11.3-8.35,36.65,36.65,0,0,1,28.81,0,33.54,33.54,0,0,1,11.3,8.35,38.5,38.5,0,0,1,7.43,13A50.7,50.7,0,0,1,398.69,526.32Zm-10.46,0q0-14.7-6.83-23.43t-18.5-8.72q-11.67,0-18.5,8.72t-6.82,23.43q0,14.71,6.82,23.36t18.5,8.64q11.69,0,18.5-8.64T388.23,526.32Z"/><path class="cls-2" d="M420.07,489.78q4.4-1.21,11.83-2.73a92.78,92.78,0,0,1,18.2-1.52q8.94,0,14.94,2.58a23,23,0,0,1,9.55,7.35,30,30,0,0,1,5.08,11.45,66.54,66.54,0,0,1,1.52,14.71v43.83h-9.86V524.81a74.22,74.22,0,0,0-1.14-14.11,23.41,23.41,0,0,0-3.79-9.4,14.76,14.76,0,0,0-7-5.23,31.79,31.79,0,0,0-10.85-1.59,82.14,82.14,0,0,0-12.05.76,37,37,0,0,0-6.6,1.36v68.85h-9.86Z"/><path class="cls-2" d="M501.66,526.17a49.62,49.62,0,0,1,3-18,39.7,39.7,0,0,1,7.73-12.81,30.36,30.36,0,0,1,10.92-7.66,33.19,33.19,0,0,1,12.66-2.5q14.42,0,23,9.4t8.56,29c0,.82,0,1.62-.07,2.43s-.13,1.57-.23,2.28h-55q.45,14.4,7.13,22.14t21.23,7.73a42.62,42.62,0,0,0,12.74-1.52,51.26,51.26,0,0,0,6.82-2.57l1.82,8.49a40.66,40.66,0,0,1-8,2.88,50.31,50.31,0,0,1-13.72,1.67q-10.32,0-17.59-3a31.37,31.37,0,0,1-12-8.49,33.58,33.58,0,0,1-6.83-13A60.18,60.18,0,0,1,501.66,526.17ZM557.31,520q-.3-12.29-5.76-19.11T536.08,494a20.54,20.54,0,0,0-9.48,2.13,24,24,0,0,0-7.27,5.68,26.36,26.36,0,0,0-4.86,8.27,34.22,34.22,0,0,0-2.05,9.86Z"/><path class="cls-2" d="M610.84,567.12q-4.94-9.29-9.58-19.28t-8.68-20.23q-4-10.23-7.38-20.46t-5.75-20.1h10.47q1.67,7.27,4.24,15.7T600,520.11q3.25,9,7.19,18.36T615.77,557q3.38-9.37,6-17.71t4.82-16.59q2.24-8.25,4.3-16.89t4.22-18.72H645q-5,22-11.1,42.8a362,362,0,0,1-13.45,38,87.68,87.68,0,0,1-5.93,11.75,34.1,34.1,0,0,1-6.78,8.11,24,24,0,0,1-8.68,4.7A40,40,0,0,1,587.38,594a24.58,24.58,0,0,1-6.93-.91,22.82,22.82,0,0,1-3.88-1.36l2-8.19a15,15,0,0,0,3.42,1.29,20.75,20.75,0,0,0,5.86.83,29.85,29.85,0,0,0,7.68-.91,16.49,16.49,0,0,0,6.15-3.11,22.77,22.77,0,0,0,4.94-5.69A50.22,50.22,0,0,0,610.84,567.12Z"/></g><path class="cls-3" d="M378.11,98A216.76,216.76,0,0,0,340,155.85l4.65,9.15a205.42,205.42,0,0,1,43.57-56.88c1.41-1.29,2.84-2.55,4.29-3.8l-6.25-14.64Q382,93.76,378.11,98Z"/><path class="cls-4" d="M331.78,172.39a212.17,212.17,0,0,0-12.68,81.83,208.38,208.38,0,0,1,19.27-79.1c1.2-2.57,2.47-5.12,3.78-7.64l-4.65-9.15C335.43,163,333.51,167.64,331.78,172.39Z"/><path class="cls-5" d="M449.73,45.12a219.59,219.59,0,0,0-61,42.08L395,101.84a201.12,201.12,0,0,1,63-36.95,196.24,196.24,0,0,1,26.7-7.59l-5.36-23.36A218.74,218.74,0,0,0,449.73,45.12Z"/><path class="cls-2" d="M782.05,253.29a237.09,237.09,0,0,0-21.45-90,233.26,233.26,0,0,0-14.68-27l-37.07,32.26q3.1,6.82,5.63,13.87A183.57,183.57,0,0,1,725,253.29Z"/><path class="cls-6" d="M704.59,87a230.34,230.34,0,0,0-76.5-46.94l-.9-.32L613.68,72.68l.75.35a190.82,190.82,0,0,1,59.9,44.25,187.81,187.81,0,0,1,32,48.76l37.07-32.26A233.44,233.44,0,0,0,704.59,87Z"/><path class="cls-7" d="M538.32,23.83a224.58,224.58,0,0,0-55,9.18l5.37,23.36a198,198,0,0,1,49.65-4A194.23,194.23,0,0,1,611.2,70.2l13.5-32.92A226.08,226.08,0,0,0,538.32,23.83Z"/></svg>