<?xml version="1.0" encoding="UTF-8"?>
<svg xmlns="http://www.w3.org/2000/svg" xmlns:xlink="http://www.w3.org/1999/xlink" width="20pt" height="20pt" viewBox="0 0 20 20" version="1.1">
<g id="surface1">
<path style=" stroke:none;fill-rule:nonzero;fill:#ffffff;fill-opacity:1;" d="M 14.457031 7.082031 L 15.585938 7.082031 L 15.585938 8.929688 L 18.75 5.679688 L 15.585938 2.5 L 15.585938 4.609375 L 14.457031 4.609375 C 11.226562 4.609375 9.402344 7.027344 7.792969 9.160156 C 6.347656 11.078125 5.097656 12.886719 3.082031 12.886719 L 1.25 12.886719 L 1.25 15.359375 L 3.082031 15.359375 C 6.3125 15.359375 8.136719 12.789062 9.746094 10.65625 C 11.191406 8.738281 12.4375 7.082031 14.457031 7.082031 Z M 5.984375 8.496094 C 6.121094 8.316406 6.261719 8.132812 6.402344 7.945312 C 6.746094 7.492188 7.105469 7.011719 7.496094 6.535156 C 6.339844 5.445312 4.945312 4.640625 3.082031 4.640625 L 1.25 4.640625 L 1.25 7.113281 C 1.25 7.113281 1.769531 7.089844 3.082031 7.113281 C 4.351562 7.140625 5.148438 7.664062 5.984375 8.496094 Z M 15.585938 12.90625 L 14.457031 12.90625 C 13.226562 12.90625 12.28125 12.289062 11.402344 11.371094 C 11.316406 11.488281 11.226562 11.605469 11.136719 11.722656 C 10.75 12.234375 10.335938 12.785156 9.878906 13.328125 C 11.066406 14.496094 12.503906 15.378906 14.457031 15.378906 L 15.585938 15.378906 L 15.585938 17.5 L 18.75 14.320312 L 15.585938 11.070312 Z M 15.585938 12.90625 "/>
</g>
</svg>
