<?xml version="1.0" encoding="UTF-8"?>
<svg xmlns="http://www.w3.org/2000/svg" xmlns:xlink="http://www.w3.org/1999/xlink" width="10pt" height="10pt" viewBox="0 0 10 10" version="1.1">
<g id="surface1">
<path style=" stroke:none;fill-rule:nonzero;fill:rgb(21.960784%,52.941176%,72.941176%);fill-opacity:1;" d="M 7.226562 3.539062 L 7.792969 3.539062 L 7.792969 4.464844 L 9.375 2.839844 L 7.792969 1.25 L 7.792969 2.304688 L 7.226562 2.304688 C 5.613281 2.304688 4.703125 3.515625 3.898438 4.578125 C 3.171875 5.539062 2.546875 6.445312 1.539062 6.445312 L 0.625 6.445312 L 0.625 7.679688 L 1.539062 7.679688 C 3.15625 7.679688 4.070312 6.394531 4.875 5.328125 C 5.59375 4.367188 6.21875 3.539062 7.226562 3.539062 Z M 2.992188 4.25 C 3.0625 4.15625 3.128906 4.066406 3.199219 3.972656 C 3.375 3.746094 3.550781 3.507812 3.746094 3.265625 C 3.167969 2.722656 2.472656 2.320312 1.539062 2.320312 L 0.625 2.320312 L 0.625 3.558594 C 0.625 3.558594 0.882812 3.546875 1.539062 3.558594 C 2.175781 3.570312 2.574219 3.832031 2.992188 4.25 Z M 7.792969 6.453125 L 7.226562 6.453125 C 6.613281 6.453125 6.140625 6.144531 5.703125 5.683594 C 5.660156 5.742188 5.613281 5.800781 5.570312 5.859375 C 5.375 6.117188 5.167969 6.390625 4.941406 6.664062 C 5.53125 7.246094 6.25 7.6875 7.226562 7.6875 L 7.792969 7.6875 L 7.792969 8.75 L 9.375 7.160156 L 7.792969 5.535156 Z M 7.792969 6.453125 "/>
</g>
</svg>
