<?xml version="1.0" encoding="UTF-8"?>
<svg xmlns="http://www.w3.org/2000/svg" xmlns:xlink="http://www.w3.org/1999/xlink" width="50pt" height="50pt" viewBox="0 0 50 50" version="1.1">
<g id="surface1">
<path style=" stroke:none;fill-rule:nonzero;fill:rgb(21.960784%,52.941176%,72.941176%);fill-opacity:1;" d="M 36.140625 17.703125 L 38.964844 17.703125 L 38.964844 22.324219 L 46.875 14.199219 L 38.964844 6.25 L 38.964844 11.523438 L 36.140625 11.523438 C 28.066406 11.523438 23.507812 17.570312 19.484375 22.898438 C 15.867188 27.695312 12.742188 32.21875 7.707031 32.21875 L 3.125 32.21875 L 3.125 38.398438 L 7.707031 38.398438 C 15.78125 38.398438 20.34375 31.972656 24.367188 26.640625 C 27.976562 21.84375 31.09375 17.703125 36.140625 17.703125 Z M 14.960938 21.242188 C 15.300781 20.789062 15.652344 20.332031 16.003906 19.863281 C 16.867188 18.730469 17.761719 17.53125 18.738281 16.335938 C 15.847656 13.613281 12.363281 11.601562 7.703125 11.601562 L 3.125 11.601562 L 3.125 17.785156 C 3.125 17.785156 4.421875 17.726562 7.707031 17.785156 C 10.878906 17.851562 12.871094 19.160156 14.960938 21.242188 Z M 38.964844 32.265625 L 36.140625 32.265625 C 33.066406 32.265625 30.703125 30.722656 28.507812 28.425781 C 28.292969 28.71875 28.066406 29.011719 27.84375 29.304688 C 26.875 30.585938 25.839844 31.960938 24.699219 33.320312 C 27.664062 36.238281 31.261719 38.445312 36.140625 38.445312 L 38.964844 38.445312 L 38.964844 43.75 L 46.875 35.800781 L 38.964844 27.675781 Z M 38.964844 32.265625 "/>
</g>
</svg>
