<svg id="Layer_1" data-name="Layer 1" xmlns="http://www.w3.org/2000/svg" viewBox="0 0 420.48 181.44"><defs><style>.cls-1,.cls-2,.cls-5{fill:#182443;}.cls-2{font-size:85.42px;font-family:Ubuntu-Medium, Ubuntu;font-weight:500;}.cls-3{letter-spacing:-0.01em;}.cls-4{letter-spacing:0em;}.cls-5{font-size:92.79px;font-family:Ubuntu-Bold, Ubuntu;font-weight:700;}.cls-6{letter-spacing:0.03em;}</style></defs><title>nvest</title><path class="cls-1" d="M9,5.05V176.89H179.7V5.05ZM163.18,91H122.29l5.4,6.28h35.49v6.78H133.52l.86,1,4.55,5.15h24.25V117H144.92l5.51,6.22h12.75v14.4h0v.94h0v21.56H124.46L93,123.25H25.47V117H87.64l-5.78-6.78H25.47V104H76.55l-5.79-6.77H25.47V91h40l-5.79-6.77H25.47V78.05H54.36L26.41,45.32l-.94-1.11V23.48H64.19l7.46,8.68L83,45.32l34.32,39.89v-.94h45.9Zm0-45.72V78.05h-45.9V23.48h45.9V45.32Z"/><text class="cls-2" transform="translate(181.5 83.07)">N<tspan class="cls-3" x="63.21" y="0">v</tspan><tspan class="cls-4" x="107.11" y="0">est</tspan></text><text class="cls-5" transform="translate(181.5 160.73)"><tspan class="cls-6">L</tspan><tspan x="55.12" y="0">ABS</tspan></text></svg>