<?xml version="1.0" encoding="utf-8"?>
<!-- Generator: Adobe Illustrator 22.1.0, SVG Export Plug-In . SVG Version: 6.00 Build 0)  -->
<svg version="1.1" id="Layer_1" xmlns="http://www.w3.org/2000/svg" xmlns:xlink="http://www.w3.org/1999/xlink" x="0px" y="0px"
	 viewBox="0 0 368.5 567" style="enable-background:new 0 0 368.5 567;" xml:space="preserve">
<style type="text/css">
	.st0{fill:#161E35;}
	.st1{fill:#9ECEEF;}
	.st2{fill:#4C8BB1;}
</style>
<g>
	<path class="st0" d="M169.9,479.9c-3.3,0.9-7.6,1.9-13.1,3c-5.5,1.1-12.2,1.7-20.2,1.7c-6.5,0-11.9-1-16.3-2.9
		c-4.4-1.9-7.9-4.6-10.6-8.1c-2.7-3.5-4.6-7.7-5.8-12.6c-1.2-4.9-1.8-10.4-1.8-16.3v-48.8H113v45.3c0,6.2,0.4,11.4,1.3,15.6
		c0.9,4.3,2.4,7.7,4.4,10.3c2,2.6,4.6,4.5,7.8,5.7c3.2,1.2,7.1,1.8,11.7,1.8c5.2,0,9.6-0.3,13.5-0.8c3.8-0.6,6.2-1.1,7.2-1.5v-76.4
		h10.9V479.9z"/>
	<path class="st0" d="M218.3,484.7c-6.6,0-12.4-1-17.4-3.1c-5-2.1-9.2-5.1-12.6-9c-3.3-3.9-5.9-8.6-7.6-14c-1.8-5.4-2.6-11.4-2.6-18
		c0-6.7,0.9-12.8,2.7-18.3c1.8-5.5,4.4-10.2,7.8-14.1c3.4-3.9,7.5-7,12.3-9.1c4.8-2.1,10.3-3.2,16.3-3.2c4.6,0,8.9,0.4,12.9,1.2
		c4,0.8,7.1,1.8,9.3,3l-2.8,9.2c-2.2-1.1-4.7-2-7.4-2.6c-2.7-0.7-6.4-1-11-1c-9.4,0-16.6,3-21.5,9.1c-4.9,6.1-7.3,14.7-7.3,25.9
		c0,5,0.5,9.7,1.6,13.9c1.1,4.2,2.9,7.8,5.3,10.9c2.5,3,5.6,5.4,9.5,7.1c3.9,1.7,8.6,2.5,14.2,2.5c4.6,0,8.5-0.5,11.6-1.6
		c3.1-1,5.4-1.9,6.8-2.7l2.3,9.2c-2,1.1-5.1,2.2-9.3,3.2C227.4,484.2,223,484.7,218.3,484.7z"/>
	<path class="st0" d="M276.4,395.9c5.6,0,10.3,0.8,14.2,2.4c3.9,1.6,7,3.8,9.5,6.6c2.4,2.8,4.2,6.1,5.3,10c1.1,3.8,1.6,8,1.6,12.5
		V481c-1.1,0.3-2.7,0.7-4.8,1.1c-2.1,0.4-4.5,0.8-7.2,1.2c-2.7,0.4-5.8,0.8-9.1,1.1c-3.3,0.3-6.8,0.4-10.3,0.4
		c-4.5,0-8.6-0.5-12.4-1.5c-3.8-1-7.1-2.6-9.9-4.7c-2.8-2.1-5-4.9-6.6-8.2c-1.6-3.3-2.4-7.4-2.4-12.3c0-4.6,0.9-8.6,2.6-11.8
		c1.8-3.3,4.2-6,7.4-8.1c3.2-2.1,7-3.7,11.4-4.7c4.4-1,9.2-1.5,14.3-1.5c1.5,0,3.2,0.1,4.9,0.2c1.7,0.2,3.3,0.4,4.9,0.7
		c1.6,0.3,3,0.6,4.1,0.8c1.2,0.3,1.9,0.5,2.4,0.7v-5.3c0-3-0.2-5.8-0.7-8.6c-0.4-2.8-1.4-5.3-2.9-7.6c-1.5-2.2-3.6-4.1-6.3-5.4
		c-2.7-1.4-6.2-2.1-10.6-2.1c-6.3,0-10.9,0.4-14,1.3c-3.1,0.9-5.3,1.6-6.7,2.1l-1.5-9.4c1.9-0.9,4.7-1.7,8.6-2.5
		C266.2,396.3,270.9,395.9,276.4,395.9z M277.4,475.2c4.2,0,7.8-0.1,10.9-0.4c3.1-0.3,5.8-0.6,8-1.1v-29.9c-1.2-0.5-3.1-1.1-5.8-1.7
		c-2.6-0.6-6.3-0.9-10.9-0.9c-2.6,0-5.4,0.2-8.2,0.6c-2.9,0.4-5.5,1.2-7.9,2.5c-2.4,1.3-4.4,3-5.9,5.2c-1.5,2.2-2.3,5.1-2.3,8.7
		c0,3.2,0.5,5.9,1.6,8.1c1,2.2,2.5,3.9,4.4,5.3c1.9,1.3,4.2,2.3,6.9,2.9C270.9,474.9,274,475.2,277.4,475.2z"/>
	<path class="st0" d="M95.4,474.4H74.6c-1.3-0.3-2.6-0.6-3.7-1c-3.2-1.2-5.8-3.1-7.8-5.7c-2-2.6-3.5-6.1-4.4-10.3
		c-0.4-2.1-0.8-4.5-1-7v-53v-29.5H46.3v29.5l0-0.3l0.1,48.2c0,5.9,0.6,11.4,1.8,16.3c1.2,4.9,3.1,9.1,5.8,12.6
		c2.7,3.5,6.2,6.2,10.6,8.1c2.1,0.9,4.5,1.6,7.1,2.1h23.6h6.7v-9.9H95.4z"/>
	<g>
		<g>
			<path class="st0" d="M132.9,521c-0.4-0.9-0.7-1.8-1-2.7c-0.3-0.9-0.6-1.7-0.9-2.5h-9.3c-0.3,0.8-0.6,1.7-0.9,2.5
				c-0.3,0.9-0.6,1.8-1,2.7h-2c0.7-2,1.4-3.8,2.1-5.6c0.6-1.7,1.3-3.3,1.9-4.9c0.6-1.5,1.2-3,1.9-4.4c0.6-1.4,1.3-2.8,1.9-4.3h1.7
				c0.7,1.4,1.3,2.8,1.9,4.3c0.6,1.4,1.2,2.9,1.8,4.4s1.3,3.2,1.9,4.9c0.6,1.7,1.3,3.6,2.1,5.6H132.9z M126.3,504
				c-0.7,1.6-1.4,3.2-2,4.8c-0.7,1.6-1.3,3.4-2,5.3h8.2c-0.7-1.9-1.4-3.7-2.1-5.3C127.7,507.2,127,505.6,126.3,504z"/>
			<path class="st0" d="M140.8,519.8c0,0.4-0.1,0.8-0.4,1.1s-0.6,0.4-1.1,0.4s-0.9-0.1-1.1-0.4c-0.3-0.3-0.4-0.7-0.4-1.1
				c0-0.4,0.1-0.8,0.4-1.1c0.3-0.3,0.6-0.4,1.1-0.4s0.9,0.1,1.1,0.4C140.7,519,140.8,519.4,140.8,519.8z"/>
			<path class="st0" d="M145.2,501.9h1.9V521h-1.9V501.9z"/>
			<path class="st0" d="M162.9,521.2c-0.3,0-0.7,0-1.1,0c-0.4,0-0.8-0.1-1.3-0.1s-0.8-0.1-1.2-0.2c-0.4-0.1-0.7-0.1-1-0.2v-18.4
				c0.3-0.1,0.7-0.2,1.1-0.2c0.4-0.1,0.8-0.1,1.3-0.2c0.4,0,0.9-0.1,1.3-0.1s0.8,0,1.1,0c1,0,2,0.1,2.9,0.2c0.9,0.2,1.7,0.4,2.4,0.8
				c0.7,0.4,1.3,0.9,1.7,1.5c0.4,0.6,0.6,1.4,0.6,2.4c0,1-0.3,1.9-0.8,2.6c-0.5,0.7-1.2,1.2-2.1,1.5c0.6,0.1,1.1,0.3,1.5,0.6
				c0.5,0.2,0.9,0.5,1.2,0.9c0.3,0.4,0.6,0.8,0.8,1.4c0.2,0.5,0.3,1.2,0.3,1.9c0,1.8-0.7,3.2-2.2,4.1
				C168.1,520.7,165.9,521.2,162.9,521.2z M160.2,510.2h3.6c0.7,0,1.3,0,1.9-0.2c0.6-0.1,1.1-0.3,1.6-0.5s0.8-0.6,1.1-1.1
				c0.3-0.4,0.4-1,0.4-1.7c0-0.6-0.1-1.1-0.4-1.6c-0.3-0.4-0.7-0.8-1.2-1.1c-0.5-0.3-1.1-0.5-1.8-0.6c-0.7-0.1-1.5-0.2-2.3-0.2
				c-0.7,0-1.3,0-1.7,0.1c-0.5,0-0.9,0.1-1.2,0.1V510.2z M160.2,511.8v7.6c0.3,0,0.7,0.1,1.2,0.1s1.1,0.1,1.7,0.1
				c0.8,0,1.7-0.1,2.5-0.2c0.8-0.1,1.5-0.3,2.1-0.6c0.6-0.3,1.1-0.7,1.5-1.2s0.6-1.2,0.6-2c0-0.7-0.1-1.4-0.4-1.8
				c-0.3-0.5-0.6-0.9-1.1-1.2c-0.5-0.3-1.1-0.5-1.8-0.6c-0.7-0.1-1.5-0.2-2.3-0.2H160.2z"/>
			<path class="st0" d="M180,506.4c0.9,0,1.7,0.1,2.4,0.4c0.7,0.3,1.2,0.6,1.6,1.1c0.4,0.5,0.7,1,0.9,1.7s0.3,1.3,0.3,2.1v9
				c-0.2,0.1-0.5,0.1-0.8,0.2c-0.4,0.1-0.8,0.1-1.2,0.2c-0.5,0.1-1,0.1-1.5,0.2s-1.1,0.1-1.7,0.1c-0.8,0-1.4-0.1-2.1-0.2
				c-0.6-0.2-1.2-0.4-1.7-0.8c-0.5-0.4-0.8-0.8-1.1-1.4c-0.3-0.6-0.4-1.2-0.4-2.1c0-0.8,0.1-1.4,0.4-2s0.7-1,1.2-1.4
				c0.5-0.4,1.2-0.6,1.9-0.8c0.7-0.2,1.5-0.2,2.4-0.2c0.3,0,0.5,0,0.8,0c0.3,0,0.6,0.1,0.8,0.1c0.3,0,0.5,0.1,0.7,0.1
				s0.3,0.1,0.4,0.1V512c0-0.5,0-1-0.1-1.5c-0.1-0.5-0.2-0.9-0.5-1.3c-0.2-0.4-0.6-0.7-1-0.9c-0.5-0.2-1-0.3-1.8-0.3
				c-1,0-1.8,0.1-2.3,0.2c-0.5,0.1-0.9,0.3-1.1,0.4l-0.2-1.6c0.3-0.1,0.8-0.3,1.4-0.4C178.3,506.4,179,506.4,180,506.4z
				 M180.1,519.7c0.7,0,1.3,0,1.8-0.1c0.5,0,1-0.1,1.3-0.2v-5c-0.2-0.1-0.5-0.2-1-0.3c-0.4-0.1-1-0.2-1.8-0.2c-0.4,0-0.9,0-1.4,0.1
				c-0.5,0.1-0.9,0.2-1.3,0.4c-0.4,0.2-0.7,0.5-1,0.9c-0.3,0.4-0.4,0.9-0.4,1.5c0,0.5,0.1,1,0.3,1.4c0.2,0.4,0.4,0.7,0.7,0.9
				c0.3,0.2,0.7,0.4,1.2,0.5C179,519.6,179.6,519.7,180.1,519.7z"/>
			<path class="st0" d="M189.7,507.2c0.5-0.1,1.3-0.3,2.2-0.5c0.9-0.2,2-0.3,3.3-0.3c1.1,0,2,0.2,2.7,0.5c0.7,0.3,1.3,0.8,1.7,1.3
				c0.4,0.6,0.7,1.3,0.9,2.1c0.2,0.8,0.3,1.7,0.3,2.7v8H199v-7.4c0-1-0.1-1.9-0.2-2.6c-0.1-0.7-0.4-1.3-0.7-1.7
				c-0.3-0.4-0.7-0.8-1.3-1s-1.2-0.3-2-0.3c-0.8,0-1.6,0-2.2,0.1c-0.6,0.1-1,0.2-1.2,0.2V521h-1.8V507.2z"/>
			<path class="st0" d="M209,513.2c0.7,0.5,1.3,1,2,1.6c0.7,0.6,1.3,1.3,2,2c0.6,0.7,1.3,1.4,1.8,2.2c0.6,0.7,1.1,1.4,1.5,2.1H214
				c-0.4-0.7-0.9-1.4-1.5-2.1c-0.6-0.7-1.2-1.4-1.8-2c-0.6-0.6-1.3-1.2-1.9-1.7c-0.6-0.5-1.2-0.9-1.7-1.1v6.9h-1.8v-21.1l1.8-0.3
				v13.3c0.4-0.3,0.9-0.8,1.4-1.3c0.6-0.6,1.2-1.1,1.8-1.7c0.6-0.6,1.2-1.1,1.7-1.7c0.5-0.5,1-1,1.3-1.4h2.2
				c-0.4,0.4-0.9,0.9-1.5,1.5c-0.5,0.5-1.1,1.1-1.7,1.7s-1.2,1.2-1.8,1.7S209.5,512.7,209,513.2z"/>
			<path class="st0" d="M221.3,502.4c0,0.4-0.1,0.8-0.4,1c-0.3,0.2-0.6,0.4-0.9,0.4c-0.4,0-0.7-0.1-0.9-0.4c-0.3-0.2-0.4-0.6-0.4-1
				s0.1-0.8,0.4-1c0.3-0.2,0.6-0.4,0.9-0.4c0.4,0,0.7,0.1,0.9,0.4C221.1,501.6,221.3,502,221.3,502.4z M220.9,521h-1.8v-14.3h1.8
				V521z"/>
			<path class="st0" d="M225.6,507.2c0.5-0.1,1.3-0.3,2.2-0.5c0.9-0.2,2-0.3,3.3-0.3c1.1,0,2,0.2,2.7,0.5c0.7,0.3,1.3,0.8,1.7,1.3
				c0.4,0.6,0.7,1.3,0.9,2.1c0.2,0.8,0.3,1.7,0.3,2.7v8h-1.8v-7.4c0-1-0.1-1.9-0.2-2.6c-0.1-0.7-0.4-1.3-0.7-1.7
				c-0.3-0.4-0.7-0.8-1.3-1s-1.2-0.3-2-0.3c-0.8,0-1.6,0-2.2,0.1c-0.6,0.1-1,0.2-1.2,0.2V521h-1.8V507.2z"/>
			<path class="st0" d="M250.6,519.3c-0.1,0.1-0.3,0.2-0.5,0.3c-0.2,0.1-0.5,0.2-0.8,0.4c-0.3,0.1-0.7,0.2-1.1,0.3
				c-0.4,0.1-0.9,0.1-1.4,0.1c-0.8,0-1.6-0.1-2.4-0.4c-0.8-0.3-1.4-0.7-2-1.2c-0.6-0.6-1-1.3-1.4-2.1s-0.5-1.9-0.5-3.2
				c0-1,0.2-2,0.5-2.8s0.8-1.6,1.3-2.3c0.6-0.6,1.3-1.1,2.1-1.5c0.8-0.4,1.8-0.5,2.8-0.5c1.3,0,2.4,0.1,3.2,0.3
				c0.8,0.2,1.5,0.3,2,0.5v13c0,2.1-0.6,3.7-1.7,4.6s-2.8,1.4-5,1.4c-0.9,0-1.8-0.1-2.5-0.2c-0.7-0.1-1.4-0.3-1.9-0.5l0.4-1.6
				c0.4,0.2,1,0.4,1.8,0.5c0.8,0.1,1.5,0.2,2.3,0.2c1.7,0,2.9-0.3,3.7-1c0.8-0.7,1.1-1.8,1.1-3.4V519.3z M250.6,508.5
				c-0.3-0.1-0.7-0.2-1.2-0.3s-1.2-0.1-2.1-0.1c-0.8,0-1.5,0.1-2.1,0.4c-0.6,0.3-1.1,0.6-1.5,1.1c-0.4,0.5-0.7,1.1-1,1.7
				c-0.2,0.7-0.3,1.4-0.3,2.2c0,0.9,0.1,1.7,0.4,2.4c0.3,0.7,0.6,1.2,1,1.6c0.4,0.4,0.9,0.7,1.4,0.9c0.5,0.2,1.1,0.3,1.6,0.3
				c0.8,0,1.6-0.1,2.2-0.4c0.7-0.2,1.2-0.5,1.6-0.8V508.5z"/>
		</g>
	</g>
</g>
<path class="st0" d="M286.9,144.5c0-17.7-4.4-35.1-12.7-50.5c-1.5-2.7-2.9-5.2-4.5-7.6c-5.6-8.6-12.5-16.3-20.3-22.8
	c-2.8-2.3-5.7-4.5-8.7-6.5l0,0l-1.4-0.9l0,0l0,0l0,0c-1.4-0.9-2.8-1.8-4.2-2.6c-2.4-1.4-4.9-2.7-7.5-3.9
	c-13.2-6.1-27.2-9.3-41.6-9.3c-12.1,0-26.9,3.3-40.6,9.2C115.9,62.1,95.4,87,87.7,119.9c-1.2,5.1-2,10.3-2.5,15.5
	c-10.9,27.3-17.1,43.3-18.2,47.6c-2.7,9.8,3.5,16.1,8.3,17.9l13.9,5.9v28.1c0,16.9,15.3,24,23.4,25.4l0.5,0.1l32.1-1.3l2.7,0
	c-1.6,11.7-4.9,23.1-10.1,34.8c-5.9,13.1-14.2,26.5-25.4,40.7l-0.1,0.2l-0.1,0.2c-4.5,6.8-3.9,11.7-2.6,14.7l0.7,1.5l1.5,0.8
	c1.8,0.9,3.9,1.4,6.2,1.4c2.3,0,4.8-0.5,7-1.3c19-6.4,35.7-18.2,51.9-29.6c13.6-9.6,27.7-19.6,42.8-25.9l0.1,0l0.1-0.1
	c9.8-4.7,20.7-7,32.1-9.4c2.8-0.6,5.7-1.2,8.6-1.8l1.1-0.2l0.9-0.7c5.3-4.3,3.6-11.1,2.6-14.7c-0.1-0.4-0.2-0.8-0.3-1.2l-0.1-0.3
	l-0.1-0.3c-0.6-1.5-1.1-2.9-1.7-4.4c-4.6-12-9.4-24.5-11.1-37.5l0-2.3c2.6-2.4,5.3-5,7.8-7.8c9.3-10.2,16.4-22,21-35l0.6-1.6l0-0.1
	c1.5-4.5,2.8-9.1,3.7-13.9C286.2,158.3,286.9,151.4,286.9,144.5z"/>
<path class="st1" d="M213.1,53.2c-8.8-2.8-17.9-4.3-27.2-4.3c-11,0-24.6,3.1-37.3,8.5c-4.7,2-9.1,4.3-13.2,7l77.7,139.7V53.2z"/>
<path class="st0" d="M95.2,126c-0.6,3.4-1.1,6.7-1.4,10.1l-0.1,1.3l-0.5,1.2c-0.5,1.4-1.1,2.7-1.6,4h12.7L95.2,126z"/>
<polygon class="st0" points="136.3,199.9 95.1,199.9 97.8,201.1 97.8,212 143,212 "/>
<path class="st0" d="M110.5,153.6H87.2c-1.8,4.7-3.4,8.7-4.7,12.1h34.8L110.5,153.6z"/>
<path class="st1" d="M97.8,223.1v11.8c0,12.8,13.6,16.4,15.9,16.9l31.1-1.2l12.8-0.1l-1.3,9.8c-1.7,12.5-5.2,24.7-10.8,37.1
	c-6.2,13.8-14.8,27.6-26.4,42.3c-1.2,1.9-1.9,3.6-2,4.9c0.2,0,0.5,0,0.7,0c1.3,0,2.8-0.3,4.1-0.8l0.2-0.1c17.8-6,34-17.5,49.8-28.5
	c6.8-4.8,13.6-9.6,20.7-14.1l-43.4-78H97.8z"/>
<path class="st0" d="M123.4,176.8H78.2c-1.9,5.2-2.7,7.4-2.9,8.4c-0.4,1.5-0.4,2.7-0.2,3.7h55.1L123.4,176.8z"/>
<path class="st2" d="M254,277.7c1.1-0.2,2.3-0.5,3.4-0.7c0.4-1,0-2.9-0.6-5.4c-0.1-0.4-0.2-0.8-0.3-1.1c-0.5-1.4-1.1-2.8-1.6-4.2
	c-4.8-12.5-9.8-25.5-11.6-39.5l-0.1-0.5l-0.1-6.7l2.9-2.6c2.1-1.8,4.1-3.9,6.1-6h-35.3L254,277.7z"/>
<path class="st2" d="M276.2,164.7h-63.1v-11.1h64.7c0.3-3,0.4-6.1,0.4-9c0-16.1-4-32-11.5-46.1c-0.1-0.1-0.1-0.3-0.2-0.4
	c-1.4-2.5-2.7-4.8-4.1-7c-5.2-7.9-11.4-14.9-18.6-21c-2.5-2.1-5.2-4.1-8-6l-0.8-0.6l-0.5-0.3c-1.3-0.8-2.6-1.6-3.8-2.3
	c-2.2-1.2-4.5-2.4-6.9-3.6c-3.5-1.6-7.1-3-10.8-4.2v150.9l0.1,0.1v-4.3h48c2.1-3,4-6.1,5.7-9.3c0.5-0.9,1-1.8,1.4-2.8h-55.1v-11.1
	h59.7l0.2-0.5C274.3,172.5,275.4,168.6,276.2,164.7z"/>
<path class="st0" d="M213.1,164.7h63.1c0.1-0.4,0.2-0.8,0.2-1.1c0.6-3.3,1.1-6.6,1.4-10h-64.7V164.7z"/>
<path class="st0" d="M213.1,187.8h55.1c1.5-3,2.8-6.1,4-9.2l0.6-1.9h-59.7V187.8z"/>
<path class="st0" d="M213.1,204.2l3.8,6.8h35.3c0.3-0.4,0.7-0.7,1-1.1c2.9-3.2,5.5-6.5,7.9-10h-48V204.2z"/>
<path class="st2" d="M216.9,211l-3.8-6.8l-0.1-0.1L135.3,64.5C115.7,77,101.9,97,96,121.8c-0.3,1.4-0.6,2.8-0.9,4.2l9.2,16.5H91.6
	c-1.6,4.1-3.1,7.8-4.4,11.1h23.3l6.7,12.1H82.4c-1.8,4.7-3.2,8.3-4.2,11.1h45.2l6.7,12.1H75.1c0.6,2.9,3.2,4,3.3,4l0.1,0.1l16.5,7
	h41.2L143,212H97.8v11.1h51.4l43.4,78c6.6-4.2,13.4-8,20.4-11.2c1-0.5,2-1,3.1-1.4c10.8-5.2,22.1-7.5,34.1-10
	c1.2-0.3,2.5-0.5,3.8-0.8L216.9,211z"/>
</svg>
