<?xml version="1.0" encoding="utf-8"?>
<!-- Generator: Adobe Illustrator 22.1.0, SVG Export Plug-In . SVG Version: 6.00 Build 0)  -->
<svg version="1.1" id="Layer_1" xmlns="http://www.w3.org/2000/svg" xmlns:xlink="http://www.w3.org/1999/xlink" x="0px" y="0px"
	 viewBox="0 0 51.8 52" style="enable-background:new 0 0 51.8 52;" xml:space="preserve">
<style type="text/css">
	.st0{fill:#1B75BC;}
</style>
<path class="st0" d="M24,15l-1.4,1.4c-0.5,0.5-1.3,0.5-1.7,0l-3.2-3.2c-0.2-0.2-0.5-0.4-0.8-0.4h-5.8c-1.1,0-1.6,1.3-0.8,2.1
	l6.9,6.9l1.1,1.1l3,3l1.1,1.1l2.4,2.4l1.1,1.1l3,3l1.1,1.1l4.1,4.1c0.2,0.2,0.5,0.4,0.8,0.4h5.8c1.1,0,1.6-1.3,0.8-2.1l-6.1-6.1
	c-0.5-0.5-0.5-1.3,0-1.7l1.4-1.4c0.5-0.5,1.3-0.5,1.7,0l9,9c0.6,0.6,1.6,0.4,2-0.3c1.5-3.2,2.2-6.8,2.2-10.6
	c0-6.5-2.4-12.4-6.3-16.9c-0.7-0.8-2.1-0.3-2.1,0.8v8.8c0,0.3-0.1,0.6-0.4,0.8l-5.3,5.4l-1.1,1.1l-3,3L32.5,30l-1.6,1.6
	c-0.5,0.5-1.3,0.5-1.7,0l-1.4-1.4c-0.5-0.5-0.5-1.3,0-1.7l1.6-1.6l1.1-1.1l3-3l1.1-1.1l4.1-4.1c0.2-0.2,0.4-0.5,0.4-0.8v-5.7
	c0-1.1-1.3-1.6-2.1-0.8L30,17.2L29,18.2l-3,3l-1.1,1.1L23.2,24c-0.5,0.5-1.3,0.5-1.7,0l-1.4-1.4c-0.5-0.5-0.5-1.3,0-1.7l1.6-1.6
	l1.1-1.1l3-3l1.1-1.1l9.9-9.9c0.6-0.6,0.4-1.6-0.3-2C33.3,0.8,29.7,0,25.9,0C19.4,0,13.5,2.4,9,6.3C8.1,7,8.7,8.4,9.8,8.4h8.8
	c0.3,0,0.6,0.1,0.8,0.4l4.4,4.4C24.4,13.7,24.4,14.5,24,15z"/>
<path class="st0" d="M27,37.7l-1.1-1.1l-3-3l-1.1-1.1L19.3,30L18.2,29l-3-3l-1.1-1.1l-9.9-9.9c-0.6-0.6-1.6-0.4-2,0.3
	C0.8,18.5,0,22.1,0,25.9c0,6.5,2.4,12.4,6.3,16.9c0.7,0.8,2.1,0.3,2.1-0.8v-8.9c0-0.3,0.1-0.6,0.4-0.8l4.4-4.4
	c0.5-0.5,1.3-0.5,1.7,0l1.4,1.4c0.5,0.5,0.5,1.3,0,1.7l-3.2,3.1c-0.2,0.2-0.4,0.5-0.4,0.8v5.8c0,1.1,1.3,1.6,2.1,0.8l6.1-6.1
	c0.5-0.5,1.3-0.5,1.7,0l1.4,1.4c0.5,0.5,0.5,1.3,0,1.7l-9,9c-0.6,0.6-0.4,1.6,0.3,2c3.2,1.5,6.8,2.2,10.6,2.2
	c6.5,0,12.4-2.4,16.9-6.3c0.8-0.7,0.3-2.1-0.8-2.1h-8.9c-0.3,0-0.6-0.1-0.8-0.4L27,37.7z"/>
</svg>
