<svg id="Layer_1" data-name="Layer 1" xmlns="http://www.w3.org/2000/svg" viewBox="0 0 568.42 380.16"><defs><style>.cls-1,.cls-2{fill:#1b75bc;}.cls-2{font-size:60.68px;font-family:Calibri-Light, Calibri;font-weight:300;letter-spacing:0.01em;}.cls-3{letter-spacing:0em;}.cls-4{letter-spacing:0.01em;}</style></defs><title>GX LIVE</title><path class="cls-1" d="M322.77,222.05h-30a4,4,0,0,1-2.85-1.26l-18-17.88-3.63-3.63L257.93,189l-3.64-3.64-8.23-8.23-3.63-3.63-10.29-10.28-3.79-3.8L195,126.05a4.11,4.11,0,0,0-6.65,1.11,88.59,88.59,0,0,0-7.59,35.9,87.35,87.35,0,0,0,21.35,57.25,4,4,0,0,0,7.12-2.69V187.57a4,4,0,0,1,1.27-2.84l15-15a4.2,4.2,0,0,1,5.85,0l4.59,4.59a4.2,4.2,0,0,1,0,5.85L225,190.74a4,4,0,0,0-1.27,2.84V213.2a4,4,0,0,0,7,2.84l20.56-20.56a4.2,4.2,0,0,1,5.85,0l4.59,4.59a4.2,4.2,0,0,1,0,5.85l-30.37,30.37a4.11,4.11,0,0,0,1.11,6.64,87.63,87.63,0,0,0,93-13.76A4,4,0,0,0,322.77,222.05Z"/><path class="cls-1" d="M334.32,105.64a4.05,4.05,0,0,0-7.12,2.69v29.9a3.93,3.93,0,0,1-1.27,2.84l-15.39,15.81c-1.53,1.22-3.4.67-4.88-.81l-4.59-4.59a4.6,4.6,0,0,1-.58-5.36l10.89-10.9a4,4,0,0,0,1.27-2.85V113.08a4,4,0,0,0-7-2.85l-23.41,23.41-3.64,3.64-10.28,10.28-3.79,3.64-5.38,5.37a4.2,4.2,0,0,1-5.85,0L248.75,152a4.21,4.21,0,0,1,0-5.86l5.38-5.37,3.64-3.64,10.28-10.28,3.64-3.64,33.53-33.37a4.13,4.13,0,0,0-1.11-6.64,87.58,87.58,0,0,0-93,13.76,4.05,4.05,0,0,0,2.69,7.11h29.89a4,4,0,0,1,2.85,1.27l15,15a4.07,4.07,0,0,1,.16,5.86l-4.59,4.58a4.2,4.2,0,0,1-5.85,0l-10.75-10.91a4,4,0,0,0-2.85-1.27H218.23a4,4,0,0,0-2.85,7L238.79,149l3.64,3.64,10.28,10.28,3.63,3.64,8.23,8.22,3.64,3.64,10.28,10.28,3.63,3.64,13.76,13.76a4,4,0,0,0,2.85,1.26h19.61a4,4,0,0,0,2.85-7l-27-27.11-.07.07L290.51,177l-5.38,5.37a4.2,4.2,0,0,1-5.85,0l-4.59-4.58a4.21,4.21,0,0,1,0-5.86l5.38-5.37,3.64-3.64L294,152.62l.27-.27h0l47.17,47.4a4.11,4.11,0,0,0,6.65-1.11,87.63,87.63,0,0,0-13.76-93Z"/><text class="cls-2" transform="translate(203.85 302.42) scale(1.32 1)">Li<tspan class="cls-3" x="40.15" y="0">v</tspan><tspan class="cls-4" x="66.92" y="0">e</tspan></text></svg>