<svg id="Layer_1" data-name="Layer 1" xmlns="http://www.w3.org/2000/svg" viewBox="0 0 393.33 74.18"><defs><style>.cls-1{fill:#1a2443;}.cls-2{fill:#fff;}</style></defs><title>logo</title><rect class="cls-1" width="73.71" height="74.18"/><polygon class="cls-2" points="66.58 7.96 46.76 7.96 46.76 24.65 46.76 31.51 66.58 31.51 66.58 7.96"/><path class="cls-2" d="M66.58,37.12V34.2H46.76v.41L23.84,8H7.13v9L19.6,31.51H7.13V34.2H21.89l2.5,2.92H7.13v2.69H26.68l2.5,2.92h-22v2.68H31.47L34,48.34H7.13V51H36.26L49.86,67H66.58v-9.3h0v-.41h0V51H61.07l-2.38-2.68h7.89V45.41H56.11l-2-2.22-.37-.43H66.58V39.83H51.25l-2.33-2.71Z"/><path class="cls-1" d="M116.29,61q-1.56-2.62-3.58-5.89c-1.34-2.17-2.8-4.43-4.36-6.77s-3.17-4.71-4.85-7.12-3.34-4.73-5-7-3.26-4.36-4.82-6.34-3-3.73-4.32-5.25V61H82.63V11.9h5.46q3.33,3.54,7.12,8.26t7.51,9.71q3.72,5,7,9.81c2.19,3.22,4.05,6.07,5.56,8.58V11.9H122V61Z"/><path class="cls-1" d="M159,24.16A186,186,0,0,1,152.54,44q-3.72,9.5-7.19,17H139.4q-3.48-7.52-7.2-17a185.93,185.93,0,0,1-6.48-19.85h7.09c.56,2.32,1.24,4.78,2,7.41s1.6,5.22,2.48,7.79,1.76,5.07,2.65,7.48,1.75,4.56,2.56,6.45q1.2-2.84,2.55-6.45t2.66-7.48q1.31-3.86,2.48-7.79c.77-2.63,1.45-5.09,2-7.41Z"/><path class="cls-1" d="M159.24,42.66a23.4,23.4,0,0,1,1.42-8.54,17.83,17.83,0,0,1,3.76-6.06,15.31,15.31,0,0,1,5.38-3.62,16.88,16.88,0,0,1,6.24-1.2q7.44,0,11.41,4.64t4,14.14v1.1a11.71,11.71,0,0,1-.07,1.24H166.12q.42,5.74,3.33,8.72t9.07,3a24.36,24.36,0,0,0,5.85-.6A21.05,21.05,0,0,0,188,54.28l.92,5.53a19.28,19.28,0,0,1-4.22,1.35,30.14,30.14,0,0,1-6.84.71,21.69,21.69,0,0,1-8.33-1.46,15.5,15.5,0,0,1-5.77-4,16.19,16.19,0,0,1-3.37-6.06A25.7,25.7,0,0,1,159.24,42.66ZM184.54,39a11,11,0,0,0-2.23-7.33A7.7,7.7,0,0,0,176,28.84a8.74,8.74,0,0,0-4,.88A9.69,9.69,0,0,0,169,32a10.62,10.62,0,0,0-1.88,3.26,16,16,0,0,0-.88,3.75Z"/><path class="cls-1" d="M206,56.27a13,13,0,0,0,6-1.07,3.61,3.61,0,0,0,1.95-3.4A4.53,4.53,0,0,0,212,48a30.89,30.89,0,0,0-6.31-3.19c-1.41-.56-2.77-1.14-4.07-1.73A14.49,14.49,0,0,1,198.22,41,9.27,9.27,0,0,1,196,38.05a9.37,9.37,0,0,1-.85-4.18,9.39,9.39,0,0,1,3.62-7.76q3.61-2.87,9.85-2.87a27.2,27.2,0,0,1,3.12.18c1,.12,2,.26,2.9.42s1.69.35,2.38.53,1.21.36,1.59.5l-1.2,5.67A16.47,16.47,0,0,0,214,29.37a21.62,21.62,0,0,0-5.46-.6,10,10,0,0,0-4.82,1.1,3.63,3.63,0,0,0-2.06,3.43,4.64,4.64,0,0,0,.47,2.13,5,5,0,0,0,1.41,1.67A12.15,12.15,0,0,0,206,38.48c.94.42,2.08.87,3.4,1.34q2.63,1,4.68,2a14.22,14.22,0,0,1,3.5,2.24,8.51,8.51,0,0,1,2.24,3.08,11.15,11.15,0,0,1,.78,4.43,8.79,8.79,0,0,1-3.79,7.72Q213,61.87,206,61.87a28.44,28.44,0,0,1-7.66-.82c-1.84-.54-3.09-1-3.75-1.24l1.2-5.67c.76.28,2,.71,3.62,1.28A21,21,0,0,0,206,56.27Z"/><path class="cls-1" d="M231.6,24.16h14v5.53h-14v17a20,20,0,0,0,.43,4.57,6.93,6.93,0,0,0,1.27,2.84,4.7,4.7,0,0,0,2.13,1.45,9.53,9.53,0,0,0,3,.42,14,14,0,0,0,4.78-.67c1.21-.45,2-.77,2.52-1L247,59.81a25.13,25.13,0,0,1-3.47,1.24,19.63,19.63,0,0,1-5.67.74,17.12,17.12,0,0,1-6.2-.95A9.16,9.16,0,0,1,227.7,58a11.54,11.54,0,0,1-2.09-4.72,31.08,31.08,0,0,1-.6-6.48V13.88l6.59-1.13Z"/><path class="cls-1" d="M264.06,61.44c-1,0-2.06,0-3.22-.07s-2.32-.12-3.47-.21-2.31-.22-3.44-.36a27,27,0,0,1-3.12-.56V12.61a25,25,0,0,1,3.12-.57c1.13-.14,2.28-.26,3.44-.35s2.3-.17,3.43-.21,2.2-.08,3.19-.08a47.66,47.66,0,0,1,8,.64,20.31,20.31,0,0,1,6.45,2.16,11.68,11.68,0,0,1,4.29,4,11.2,11.2,0,0,1,1.56,6.09,10.88,10.88,0,0,1-1.91,6.63,11.58,11.58,0,0,1-5.1,3.86,14.83,14.83,0,0,1,6.87,4q2.55,2.76,2.55,7.8,0,7.36-5.42,11.09T264.06,61.44ZM257.61,32.6h7.23a30.75,30.75,0,0,0,4.82-.36A11.8,11.8,0,0,0,273.59,31a7.18,7.18,0,0,0,2.63-2.4,6.92,6.92,0,0,0,.95-3.76,6.21,6.21,0,0,0-1-3.58,7.13,7.13,0,0,0-2.73-2.34,14.63,14.63,0,0,0-4.07-1.31,28.09,28.09,0,0,0-5-.43c-1.75,0-3.12,0-4.11.08s-1.89.11-2.7.21Zm0,5.52v17.3l1.85.14c.61,0,1.33.08,2.16.1s1.78,0,2.87,0a40.78,40.78,0,0,0,5.77-.39,16.33,16.33,0,0,0,4.79-1.38,8.26,8.26,0,0,0,3.29-2.77,7.57,7.57,0,0,0,1.24-4.46,8.26,8.26,0,0,0-.92-4.08A6.78,6.78,0,0,0,276,40a12.47,12.47,0,0,0-4.14-1.42,31.49,31.49,0,0,0-5.39-.43Z"/><path class="cls-1" d="M304.32,23.24a19,19,0,0,1,6.7,1,10.86,10.86,0,0,1,4.39,2.9,11,11,0,0,1,2.37,4.47,21.23,21.23,0,0,1,.71,5.7v23l-2.37.39c-1,.16-2.16.32-3.44.46s-2.66.27-4.14.39-3,.17-4.43.17a24.65,24.65,0,0,1-5.75-.63,12.94,12.94,0,0,1-4.53-2,9.24,9.24,0,0,1-3-3.65A12.75,12.75,0,0,1,289.79,50,10.51,10.51,0,0,1,291,44.78a9.94,9.94,0,0,1,3.37-3.54,15.34,15.34,0,0,1,5-2,26.73,26.73,0,0,1,5.95-.64,18.38,18.38,0,0,1,2.06.11c.7.07,1.38.16,2,.28l1.66.32,1,.21V37.7a15.29,15.29,0,0,0-.35-3.23,7.37,7.37,0,0,0-1.28-2.83,6.45,6.45,0,0,0-2.51-2,10,10,0,0,0-4.15-.74,30.86,30.86,0,0,0-5.7.46,19.9,19.9,0,0,0-3.65,1l-.78-5.46a20.38,20.38,0,0,1,4.25-1.1A37.09,37.09,0,0,1,304.32,23.24Zm.56,33c1.56,0,2.95,0,4.15-.11a17.75,17.75,0,0,0,3-.39v-11a8.86,8.86,0,0,0-2.3-.6,26.42,26.42,0,0,0-3.86-.24,25.26,25.26,0,0,0-3.16.21,9.58,9.58,0,0,0-3,.88,6.55,6.55,0,0,0-2.31,1.85,4.85,4.85,0,0,0-.92,3.08q0,3.54,2.27,4.92A11.71,11.71,0,0,0,304.88,56.27Z"/><path class="cls-1" d="M325.86,25.22c1.51-.37,3.52-.78,6-1.2a51.48,51.48,0,0,1,8.64-.64,18.77,18.77,0,0,1,7.3,1.24,11.54,11.54,0,0,1,4.65,3.47,13.54,13.54,0,0,1,2.44,5.36,31.12,31.12,0,0,1,.71,6.87V61H349V41.74a32,32,0,0,0-.46-5.81,9.83,9.83,0,0,0-1.53-3.9,6,6,0,0,0-2.83-2.16,12.44,12.44,0,0,0-4.4-.68c-.7,0-1.44,0-2.19.07s-1.48.11-2.16.18-1.31.16-1.85.25l-1.17.21V61h-6.59Z"/><path class="cls-1" d="M376.32,40.75a43.25,43.25,0,0,1,4.5,4c1.59,1.61,3.14,3.35,4.68,5.21s3,3.76,4.36,5.67A61.73,61.73,0,0,1,393.33,61h-7.72A56.15,56.15,0,0,0,382.17,56q-1.95-2.6-4.08-5a54,54,0,0,0-4.32-4.36,38.16,38.16,0,0,0-4.18-3.33V61H363V7.15L369.59,6V39.61l3.76-3.75c1.37-1.38,2.71-2.77,4-4.19s2.57-2.77,3.75-4.07,2.2-2.45,3.05-3.44h7.72l-3.54,3.9c-1.27,1.42-2.6,2.85-4,4.29s-2.75,2.88-4.14,4.32Z"/></svg>