<?xml version="1.0" encoding="utf-8"?>
<!-- Generator: Adobe Illustrator 22.1.0, SVG Export Plug-In . SVG Version: 6.00 Build 0)  -->
<svg version="1.1" id="Layer_1" xmlns="http://www.w3.org/2000/svg" xmlns:xlink="http://www.w3.org/1999/xlink" x="0px" y="0px"
	 viewBox="0 0 620.9 243.5" style="enable-background:new 0 0 620.9 243.5;" xml:space="preserve">
<style type="text/css">
	.st0{fill:#192443;}
	.st1{fill:#FFFFFF;}
</style>
<rect x="26.2" y="26.3" class="st0" width="189.2" height="190.4"/>
<g>
	<polygon class="st1" points="197,46.7 146.2,46.7 146.2,89.5 146.2,107.1 197,107.1 	"/>
	<path class="st1" d="M197,121.5V114h-50.9v1.1L87.4,46.7H44.5v23l32,37.5h-32v6.9h37.9l6.4,7.5H44.5v6.9h50.2l6.4,7.5H44.5v6.9
		h62.5l6.4,7.5H44.5v6.9h74.8l34.9,40.9H197v-23.9l0,0v-0.3v-0.8l0,0v-16h-14.1c-2-2.3-4.1-4.6-6.1-6.9H197v-7.5h-26.9
		c-1.7-1.9-3.4-3.8-5-5.7l-1-1.1H197v-7.5h-39.3l-6-7H197z"/>
</g>
<g>
	<path class="st0" d="M313.6,173.7v14.8h-73.4v-122h17.1v107.2H313.6z"/>
	<path class="st0" d="M310.1,142.9c0-8.1,1.2-15.2,3.5-21.2c2.3-6,5.5-11.1,9.3-15c3.9-4,8.3-7,13.4-9c5-2,10.2-3,15.5-3
		c12.3,0,21.8,3.8,28.3,11.5c6.6,7.7,9.9,19.4,9.9,35.1c0,0.7,0,1.6,0,2.7c0,1.1-0.1,2.1-0.2,3.1h-62.7c0.7,9.5,3.5,16.7,8.3,21.6
		c4.8,4.9,12.3,7.4,22.5,7.4c5.7,0,10.6-0.5,14.5-1.5c3.9-1,6.9-2,8.9-2.9l2.3,13.7c-2,1.1-5.5,2.2-10.5,3.3c-5,1.2-10.6,1.8-17,1.8
		c-8,0-14.9-1.2-20.7-3.6s-10.6-5.7-14.3-9.9c-3.8-4.2-6.5-9.2-8.4-15C311,156.1,310.1,149.8,310.1,142.9z M372.9,133.9
		c0.1-7.4-1.7-13.5-5.5-18.2c-3.8-4.8-9.1-7.1-15.8-7.1c-3.8,0-7.1,0.7-9.9,2.2c-2.9,1.5-5.3,3.4-7.3,5.7c-2,2.3-3.6,5-4.7,8.1
		c-1.1,3.1-1.8,6.2-2.2,9.3H372.9z"/>
	<path class="st0" d="M457.7,179.3c-1.4,0.9-4.1,2.1-8.2,3.6c-4,1.5-8.8,2.2-14.2,2.2c-5.5,0-10.7-0.9-15.6-2.6
		c-4.9-1.8-9.1-4.5-12.8-8.2c-3.6-3.7-6.5-8.3-8.6-13.8c-2.1-5.5-3.2-12.1-3.2-19.7c0-6.7,1-12.8,3-18.4c2-5.6,4.9-10.4,8.7-14.4
		c3.8-4,8.5-7.2,14-9.5c5.5-2.3,11.7-3.4,18.7-3.4c7.6,0,14.3,0.6,20,1.7c5.7,1.1,10.5,2.1,14.3,3.1v81.7c0,14.1-3.6,24.3-10.9,30.6
		c-7.3,6.3-18.3,9.5-33.1,9.5c-5.8,0-11.2-0.5-16.3-1.4c-5.1-0.9-9.5-2.1-13.3-3.3l3-14.3c3.3,1.3,7.3,2.4,12.1,3.4
		c4.8,1,9.7,1.5,14.9,1.5c9.7,0,16.7-1.9,21-5.8c4.3-3.9,6.4-10,6.4-18.5V179.3z M457.6,111.4c-1.6-0.5-3.8-0.9-6.6-1.3
		c-2.8-0.4-6.5-0.6-11.2-0.6c-8.8,0-15.6,2.9-20.3,8.6c-4.8,5.8-7.1,13.4-7.1,22.9c0,5.3,0.7,9.8,2,13.6c1.3,3.8,3.2,6.9,5.5,9.3
		c2.3,2.5,4.9,4.3,7.9,5.5c3,1.2,6.1,1.8,9.2,1.8c4.3,0,8.3-0.6,12-1.8c3.6-1.2,6.5-2.7,8.6-4.3V111.4z"/>
	<path class="st0" d="M518.5,94.6c6.6,0,12.1,0.9,16.6,2.6c4.5,1.7,8.2,4.1,10.9,7.2c2.8,3.1,4.7,6.8,5.9,11.1
		c1.2,4.3,1.8,9,1.8,14.2v57.2c-1.4,0.2-3.4,0.6-5.9,1c-2.5,0.4-5.4,0.8-8.5,1.1c-3.2,0.4-6.6,0.7-10.3,1c-3.7,0.3-7.4,0.4-11,0.4
		c-5.2,0-9.9-0.5-14.3-1.6c-4.3-1.1-8.1-2.7-11.3-5s-5.6-5.3-7.4-9.1c-1.8-3.8-2.6-8.3-2.6-13.6c0-5,1-9.4,3.1-13
		c2.1-3.6,4.8-6.6,8.4-8.8c3.5-2.2,7.6-3.9,12.3-4.9c4.7-1.1,9.6-1.6,14.8-1.6c1.6,0,3.3,0.1,5.1,0.3c1.8,0.2,3.4,0.4,5,0.7
		c1.6,0.3,3,0.6,4.1,0.8c1.2,0.2,2,0.4,2.5,0.5v-4.6c0-2.7-0.3-5.4-0.9-8c-0.6-2.6-1.6-5-3.2-7c-1.5-2.1-3.6-3.7-6.2-4.9
		c-2.6-1.2-6.1-1.8-10.3-1.8c-5.4,0-10.1,0.4-14.2,1.1c-4,0.8-7.1,1.6-9.1,2.4l-1.9-13.6c2.1-0.9,5.6-1.8,10.6-2.7
		C507.4,95.1,512.7,94.6,518.5,94.6z M519.9,176.7c3.9,0,7.3-0.1,10.3-0.3c3-0.2,5.5-0.5,7.5-1v-27.3c-1.2-0.6-3.1-1.1-5.7-1.5
		c-2.6-0.4-5.8-0.6-9.6-0.6c-2.5,0-5.1,0.2-7.8,0.5c-2.8,0.4-5.3,1.1-7.6,2.2c-2.3,1.1-4.2,2.6-5.7,4.6c-1.5,1.9-2.3,4.5-2.3,7.7
		c0,5.9,1.9,9.9,5.6,12.2C508.3,175.5,513.4,176.7,519.9,176.7z"/>
	<path class="st0" d="M595,190.2c-10.1-0.2-17.2-2.4-21.5-6.5c-4.2-4.1-6.3-10.5-6.3-19.2V54.7l16.4-2.8v110c0,2.7,0.2,4.9,0.7,6.7
		c0.5,1.8,1.2,3.2,2.3,4.2c1.1,1.1,2.5,1.8,4.2,2.4s3.9,1,6.5,1.3L595,190.2z"/>
</g>
</svg>
