<svg id="Layer_1" data-name="Layer 1" xmlns="http://www.w3.org/2000/svg" viewBox="0 0 611.14 257.81"><defs><style>.cls-1,.cls-2,.cls-5{fill:#182443;}.cls-2{font-size:85.42px;font-family:Ubuntu-Medium, Ubuntu;font-weight:500;}.cls-3{letter-spacing:-0.01em;}.cls-4{letter-spacing:0em;}.cls-5{font-size:92.79px;font-family:Ubuntu-Bold, Ubuntu;font-weight:700;}.cls-6{letter-spacing:0.03em;}</style></defs><title>NVEST LAB</title><path class="cls-1" d="M101.27,42V213.85H272V42ZM255.5,128H214.61l5.4,6.28H255.5v6.78H225.84l.86,1,4.55,5.16H255.5V154H237.24l5.51,6.22H255.5v14.4h0v.94h0V197.1H216.78l-31.51-36.9H117.79V154H180l-5.78-6.77H117.79V141h51.08l-5.78-6.78h-45.3V128h40L152,121.22h-34.2V115h28.89L118.74,82.27l-.95-1.11V60.44h38.72L164,69.12l11.31,13.15,34.32,39.9v-1h45.9Zm0-45.72V115H209.6V60.44h45.9V82.27Z"/><text class="cls-2" transform="translate(273.82 120.02)">N<tspan class="cls-3" x="63.21" y="0">v</tspan><tspan class="cls-4" x="107.11" y="0">est</tspan></text><text class="cls-5" transform="translate(273.82 197.69)"><tspan class="cls-6">L</tspan><tspan x="55.12" y="0">ABS</tspan></text></svg>