<svg id="Layer_1" data-name="Layer 1" xmlns="http://www.w3.org/2000/svg" viewBox="0 0 1139.24 720"><defs><style>.cls-1{fill:#182443;}</style></defs><title>Nvest Dna final</title><path class="cls-1" d="M447,297.48v10.57l43.13,50.51H447v9.29H498L506.65,378H447v9.28h67.62l8.63,10.12H447v9.28h84.18l8.63,10.11H447V426H547.7l47,55.09h57.8V448.94h0v-1.41h0V426h-19l-8.22-9.28h27.26V406.64h-36.2L609.54,399l-1.29-1.5h44.28V387.34h-53L591.48,378h61V367.85H584v1.41l-61.74-71.78-17.51-20.36H447Z"/><polygon class="cls-1" points="584.01 297.48 584.01 334.84 584.01 358.56 652.53 358.56 652.53 297.48 652.53 277.12 584.01 277.12 584.01 297.48"/><path class="cls-1" d="M671.32,113.8c-.05,1.27-.08,2.56-.12,3.84q-.18,5.14-.35,10.24a374.53,374.53,0,0,1,38.77,9.41A275.84,275.84,0,0,0,671.32,113.8Z"/><path class="cls-1" d="M771.09,260.24c3.63.38,7.29.73,11,1.09,5,.49,10.12,1,15.18,1.54.84-4.6,1.6-9.23,2.23-13.87a274.93,274.93,0,0,0-26-46.27C776.81,221.09,774.8,240.58,771.09,260.24Z"/><path class="cls-1" d="M758.67,290.86l2.81.33,2.81.31c5,.54,9.86,1,14.69,1.49,3.92.39,7.78.76,11.58,1.16.94.1,1.88.19,2.81.3l2.81.31c6.7.76,13.19,1.63,19.44,2.75a270.47,270.47,0,0,0-8-27.72c-1.94-.27-3.88-.51-5.83-.75l-2.8-.32-2.8-.31c-4.9-.54-9.8-1-14.68-1.49-3.86-.38-7.7-.75-11.51-1.15l-2.81-.3-2.8-.31c-20.91-2.38-40.74-5.91-57.78-15.09l66.14-48.45Q769,196.25,765,191.08l-70.09,51.35a81.64,81.64,0,0,1-12.31-11.86l71.66-52.49q-4.35-5-8.94-9.7L675.11,219.8a73,73,0,0,1-6-16.47l64-46.86q-5-4.53-10.13-8.82L666.5,189c-2.12-16.69-2-36.12-1.4-56.51,0-.95,0-1.9.08-2.85l.09-2.84c.1-3.1.21-6.22.31-9.35.07-2.11.14-4.25.2-6.37a273.5,273.5,0,0,0-25.87-10.77c-.15,5.44-.33,10.87-.51,16.25-.06,1.79-.12,3.56-.18,5.34l-.09,2.84c0,.94-.06,1.89-.09,2.84-1.41,44.89-1.26,86.55,18.72,113.82C684.2,277.47,722.2,286.47,758.67,290.86Z"/><path class="cls-1" d="M822.67,358.75l-30.88,22.62,7.75,10.56,22.7-16.63c.28-5.15.44-10.34.44-15.56C822.68,359.41,822.67,359.08,822.67,358.75Z"/><path class="cls-1" d="M462,120.81c21-4.09,42.22-8.82,62-16.17a71.47,71.47,0,0,0,23.85-15,71.61,71.61,0,0,0,23.86,15c19.75,7.35,40.93,12.08,62,16.17l.15-4.46c.2-6,.39-12,.55-18a275.46,275.46,0,0,0-81.23-14.08q-3.11-.08-6.24-.08c-1.47,0-2.93,0-4.4.06a275.27,275.27,0,0,0-81.22,13.5c.16,6.21.36,12.42.57,18.58Z"/><path class="cls-1" d="M424.41,117.64l-.15-4.75a275.77,275.77,0,0,0-41.62,25.48c12.87-4.28,27.17-7.53,42.11-10.49C424.65,124.48,424.53,121.07,424.41,117.64Z"/><path class="cls-1" d="M302.23,294.45l2.81-.3c3.81-.4,7.67-.77,11.59-1.16,4.83-.47,9.74-.95,14.69-1.49l2.81-.31,2.8-.33c36.48-4.39,74.48-13.39,100.91-49.47,20-27.27,20.14-68.93,18.73-113.82l-.09-2.84-.09-2.84c-.06-1.78-.12-3.55-.18-5.34-.19-5.6-.37-11.25-.53-16.9a273.38,273.38,0,0,0-25.88,10.56c.07,2.41.14,4.84.22,7.23q.17,4.69.32,9.35c0,.95.06,1.9.08,2.84l.09,2.85c.59,20.39.72,39.82-1.4,56.51l-57.43-42.07q-5.19,4.28-10.17,8.79l65,47.62a73,73,0,0,1-6,16.47l-71.27-52.21q-4.61,4.72-9,9.66L413,230.57a81.64,81.64,0,0,1-12.31,11.86l-71.29-52.22c-2.26,2.89-4.47,5.84-6.62,8.82l-1.21,1.68a275.58,275.58,0,0,0-25.9,45c.7,5.74,1.61,11.46,2.65,17.13,5.06-.55,10.13-1.05,15.18-1.54,3.68-.36,7.34-.71,11-1.09-3.81-20.18-5.82-40.19-2.16-59L389,250.07c-17.05,9.18-36.87,12.71-57.78,15.09l-2.81.31-2.8.3c-3.81.4-7.65.77-11.51,1.15-4.88.47-9.78.95-14.68,1.49l-2.8.31-2.8.32c-2.61.32-5.21.65-7.8,1a272.55,272.55,0,0,0-8,27.8c6.84-1.29,14-2.26,21.37-3.1Z"/><path class="cls-1" d="M303.81,381.37l-32.72-24c0,.79,0,1.56,0,2.35q0,7.11.36,14.13l24.65,18.06Z"/><path class="cls-1" d="M338.31,373.76c5.64-23.12.53-49.32-5.72-76.75-5.2.57-10.35,1.08-15.42,1.57-3.67.36-7.29.71-10.86,1.08,4.44,19.3,8.29,37.08,8.21,52.44l-40.89-30c-.68,5-1.24,10-1.65,15l40.9,30a42.84,42.84,0,0,1-7.06,15.71,90.14,90.14,0,0,1-18.47,18.63l-6.87-.08-7-5.13c.57,4.36,1.25,8.7,2,13q.5,2.76,1.06,5.51,1.64,8.08,3.76,16,.65,2.46,1.33,4.89a275.55,275.55,0,0,0,80.92,129.08c13.95,4.64,28.38,8.37,42.77,11.78.11-1.48.21-3,.33-4.45.54-7.3,1.08-14.66,1.55-22-18.4-4.43-36.63-9.46-53.05-16.34a45.64,45.64,0,0,1-14.2-9.58L410,477a61.27,61.27,0,0,1,3.71,17.31c1,16.6.47,34-.56,51.31L413,548.5c-.06.94-.11,1.89-.17,2.84-.47,7.07-1,14.14-1.51,21.14l-.39,5.32-.21,2.83c-.07,1-.14,1.89-.2,2.84q-.56,7.68-1,15.22a276.23,276.23,0,0,0,25.58,13c.29-7.23.74-14.66,1.27-22.24.07-.94.13-1.89.2-2.83s.13-1.89.2-2.84c.23-3.09.46-6.21.69-9.33.42-5.67.84-11.39,1.23-17.12.07-.95.14-1.89.2-2.84l.18-2.84c1.25-19.63,2-39.47.83-58.86C436.29,434,370.78,391.39,338.31,373.76ZM327,398.33l.43-.63a296.5,296.5,0,0,1,34.18,21.93l1.4,1.06-52.7,35.44a303.51,303.51,0,0,1-4.57-35.72A115.68,115.68,0,0,0,327,398.33Zm46.67,31c4.26,3.67,8.51,7.63,12.55,11.85l-67.86,45.63c-1.93-5.49-3.6-11.17-5-16.91ZM331.55,514a100.35,100.35,0,0,1-8.25-14.75l71.6-48.13A107.15,107.15,0,0,1,404.38,465Z"/><path class="cls-1" d="M809.88,402.68a90.4,90.4,0,0,1-20.09-19.84,42.52,42.52,0,0,1-7.06-15.71l39.14-28.67q-.58-7.6-1.58-15.08L781.08,352.1c-.08-15.36,3.78-33.14,8.21-52.44-3.57-.37-7.19-.72-10.86-1.08-5.07-.49-10.21-1-15.41-1.57-6.54,28.68-11.83,56-4.87,79.91-33.47,18.7-94.53,60.37-98,117-1.17,19.39-.42,39.23.84,58.86.06,1,.11,1.89.18,2.84s.13,1.89.19,2.83q.6,8.61,1.24,17.13.35,4.68.69,9.33c.06,1,.13,1.89.2,2.83s.13,1.9.2,2.84c.43,6.19.81,12.29,1.09,18.25a275.36,275.36,0,0,0,25.46-13.72c-.22-3.47-.46-7-.71-10.48-.07-.95-.13-1.89-.21-2.84s-.13-1.89-.2-2.83c-.13-1.77-.27-3.55-.4-5.32-.52-7-1-14.07-1.5-21.14-.06-.95-.11-1.9-.17-2.85l-.18-2.84c-1-17.35-1.57-34.71-.56-51.31a60.93,60.93,0,0,1,3.71-17.31l70,47.06a45.59,45.59,0,0,1-14.19,9.58c-16.43,6.88-34.66,11.9-53.05,16.34.47,7.38,1,14.74,1.55,22l.33,4.45c10.31-2.44,20.65-5,30.82-8a276.43,276.43,0,0,0,75.65-103c.18-.44.35-.88.53-1.31a273.34,273.34,0,0,0,10.62-30.5q2.67-9.4,4.67-19.08.76-3.72,1.44-7.47.5-2.83.94-5.7c.25-1.59.47-3.19.69-4.79l-6.63,4.86ZM768.49,515.15l-72.83-49a107.15,107.15,0,0,1,9.48-13.92l71.59,48.13A99.41,99.41,0,0,1,768.49,515.15ZM781.72,488l-67.87-45.63c4-4.22,8.29-8.18,12.56-11.85l60.34,40.57C785.31,476.8,783.64,482.48,781.72,488Zm8-30.66-52.7-35.44,1.39-1.06a294.29,294.29,0,0,1,31.67-20.53,116.61,116.61,0,0,0,24.06,23.38A303.72,303.72,0,0,1,789.77,457.31Z"/><path class="cls-1" d="M657,576c-.4-5.38-.8-10.81-1.18-16.25C612.2,570.05,572.4,582,550.42,614.06l-.32-.49c-21.88-32.54-62-44.62-105.93-55-.37,5.44-.77,10.87-1.17,16.25-.26,3.43-.51,6.83-.76,10.22,20.78,5,40.28,10.49,56.22,18.51l-30.22,20.32c5.56,1.64,11.18,3.13,16.88,4.43L511,611a70.27,70.27,0,0,1,13,11.54l-15.11,10.16q10.11,1.4,20.44,2c1,.07,2.06.15,3.1.2q3.33.17,6.68.26,3.88.11,7.78.11,7.26,0,14.43-.37,3.63-.18,7.24-.47h0q10.14-.79,20.06-2.3l-12.57-8.45a70.2,70.2,0,0,1,13-11.54L612,627.52c5.63-1.36,11.19-2.87,16.68-4.57l-27.07-18.2c15.93-8,35.43-13.51,56.21-18.51C657.55,582.85,657.29,579.45,657,576Z"/></svg>