<svg id="Layer_1" data-name="Layer 1" xmlns="http://www.w3.org/2000/svg" viewBox="0 0 467 315"><defs><style>.cls-1,.cls-2,.cls-5{fill:#182443;}.cls-2{font-size:86.74px;font-family:Ubuntu-Medium, Ubuntu;font-weight:500;}.cls-3{letter-spacing:-0.01em;}.cls-4{letter-spacing:0em;}.cls-5{font-size:85.61px;font-family:Ubuntu-Light, Ubuntu;font-weight:300;}.cls-6{letter-spacing:0.02em;}.cls-7{letter-spacing:-0.1em;}.cls-8{letter-spacing:0em;}</style></defs><title>Nvest health</title><path class="cls-1" d="M102.74,127.37c-1.91-.05-4-.23-4.55-.74-1.11-1-1.92-3.14-2.13-5.78s-.3-12-9.63-12.78-14.7,4.46-22.92,8.62-25.45,12.48-36,14.71c-8.44,1.78,5.15,2,12.31,1.61,4.48-2.08,31.47-14.58,36.55-16.6,0,0-23.88,12-36.24,18.33-1.62,1.12-3.09,2.39-2.48,2.94.9.83,8.38,1.38,14.42.66,3.84-1.63,18-7.73,25.4-11.8,0,0-14.82,8.67-23.49,12.33-2.36,1.33-4.87,3.1-4,4.19,1.26,1.5,9.45.85,14.37-.66,3.38-2,11.82-7.19,14.18-9l.31-.25-.31.25c-1.44,1.14-7.72,6.07-13,9.56-1.32,1.52-2.58,3.48-1.31,4.46,1.94,1.5,8.41-.91,12.53-3.1a50.26,50.26,0,0,0,6.6-6.23,46.7,46.7,0,0,1-6,6.75c-1.26,1.8-3,4.73-1.74,5.83,1.52,1.35,6.36-.26,9.28-2.25a30.41,30.41,0,0,0,3.71-5.16,20.7,20.7,0,0,1-3,5.73c-.31,1.17-.35,2.59,1,3.2,2.22,1,4.67-.38,6.88-2.57a38.78,38.78,0,0,0,2.31-3.72s-.95,2.51-1.92,4.43a1.82,1.82,0,0,0,.85,2.18c1.23.54,5.59-.94,8.3-5.73Z"/><path class="cls-1" d="M103.19,129.08h-.8a25.53,25.53,0,0,1-2.9-.2,8.52,8.52,0,0,1-.88-.16,2.46,2.46,0,0,1-1.55-.86,10.18,10.18,0,0,1-2-5.86q0-.21,0-.48c-.2-3-.73-11-9-11.74-.62,0-1.24-.08-1.84-.08a18.75,18.75,0,0,0-2,.1c-4.67.49-8.44,2.94-12.51,5l-.72.36-2,1c-1,.5-2,1-3,1.48L60.77,119s1.42-.56,3.15-1.3c1-.42,2-.91,3-1.37,2.22-1.05,4.38-2.21,6.58-3.3a27.49,27.49,0,0,1,6.39-2.33,20.45,20.45,0,0,1,4.28-.44c.59,0,1.19,0,1.79.08,7.8.67,8.28,8,8.49,11.17,0,.2,0,.35,0,.48a12,12,0,0,0,1.65,5.69c1.14,1.62,2.2,1.61,4.08,1.84.3,0,3,.16,3,.13Z"/><path class="cls-1" d="M185.16,131.46c-10.54-2.23-27.78-10.55-36-14.7s-13.59-9.44-22.92-8.62-9.43,10.14-9.63,12.77-1,4.77-2.13,5.78c-.58.53-2.73.7-4.68.74l-.43,18.95c2.69,5.16,7.28,6.75,8.56,6.19.89-.39,1-1.32.84-2.18-1-1.92-1.92-4.43-1.92-4.43a38.78,38.78,0,0,0,2.31,3.72c2.21,2.19,4.66,3.55,6.88,2.57,1.38-.61,1.35-2,1-3.19a21,21,0,0,1-3-5.73,30.3,30.3,0,0,0,3.72,5.16c2.92,2,7.75,3.59,9.27,2.24,1.23-1.09-.48-4-1.73-5.83a45.41,45.41,0,0,1-6-6.75,49,49,0,0,0,6.6,6.23c4.12,2.19,10.58,4.6,12.52,3.1,1.27-1,0-2.94-1.3-4.45-5.33-3.5-11.6-8.42-13.05-9.57l-.31-.25.31.25c2.37,1.81,10.8,7,14.19,9,4.91,1.5,13.1,2.15,14.36.65.92-1.09-1.6-2.85-4-4.19-8.67-3.66-23.48-12.33-23.48-12.33,7.38,4.08,21.56,10.17,25.39,11.8,6,.72,13.52.18,14.42-.65.61-.56-.85-1.82-2.47-2.95-12.36-6.3-36.24-18.33-36.24-18.33,5.08,2,32.06,14.53,36.55,16.61C180,133.47,193.61,133.25,185.16,131.46Z"/><path class="cls-1" d="M109.48,129.14h.8a25.7,25.7,0,0,0,2.91-.2c.29,0,.59-.09.88-.15a2.46,2.46,0,0,0,1.54-.87,10.11,10.11,0,0,0,2-5.86c0-.14,0-.3,0-.48.19-3,.72-11,9-11.74.62,0,1.24-.08,1.84-.08s1.33,0,2,.1c4.66.49,8.43,2.94,12.5,5l.73.36,1.94,1c1,.5,2,1,3,1.49,1.72.78,3.17,1.43,3.17,1.44s-1.43-.57-3.16-1.3c-1-.43-2-.91-2.95-1.38-2.23-1-4.38-2.2-6.58-3.29a27.52,27.52,0,0,0-6.39-2.34,21.32,21.32,0,0,0-4.29-.44c-.58,0-1.18,0-1.79.08-7.79.68-8.28,8-8.49,11.17,0,.2,0,.35,0,.49a11.83,11.83,0,0,1-1.65,5.68c-1.13,1.63-2.19,1.61-4.08,1.84-.29,0-3,.16-3,.13C109.46,129.55,109.47,129.35,109.48,129.14Z"/><path class="cls-1" d="M104.41,192.81l2.66-1.88.66-.46.24-10.61c-1-.43-2.34-.92-3.79-1.45Z"/><path class="cls-1" d="M107,221.06c-.67-.68-1.43-1.42-2.2-2.14l.25,15.82c.54-.77,1.12-1.52,1.69-2.24Z"/><path class="cls-1" d="M107.18,214.52l.39-16.94c-1.16.76-2.17,1.46-3,2.11l.2,12.37C105.52,212.89,106.36,213.71,107.18,214.52Z"/><path class="cls-1" d="M106.07,172.1l2.06,1,1.33-57.77a5.66,5.66,0,0,1-3.13.75,6.19,6.19,0,0,1-3.28-.75l1,55.88Z"/><path class="cls-1" d="M106.5,238.18a14,14,0,0,0-1.33,2.13l.18,11.36.48,1.57.5-1.57.32-13.67Z"/><path class="cls-1" d="M105.08,234.74l.45-.62c-.44-.58-.89-1.15-1.34-1.71s-1-1.26-1.5-1.92c-2.61-3.55-1.49-5-1-6.64.27-.82,1.89-2.57,3.71-4.35-.75-.72-1.54-1.44-2.3-2.12-.74.73-1.44,1.46-2.08,2.16-4.41,4.82-3.19,7.2-2.29,9.53.7,1.83,3.41,4.18,5.69,6.6C104.66,235.37,104.86,235.06,105.08,234.74Z"/><path class="cls-1" d="M101.68,194.79c1.09-.81,2.35-1.71,3.65-2.63-2.46-1.73-5-3.52-7-5-3.51-2.64,1-5.78,3.55-7.15a28.78,28.78,0,0,1,3-1.32l-2.74-1-3.28-1.21-1.71.94c-3.26,1.87-6.91,5-5.25,9.16,1.29,3.24,4.63,5,7.43,6.77Z"/><path class="cls-1" d="M107.8,237.64l-.34-.62c-.33.38-.64.75-.92,1.12a8.7,8.7,0,0,1,1.6,3.29,8.36,8.36,0,0,1-.75,4.39,1.72,1.72,0,0,0,.35-.3,2.37,2.37,0,0,0,.32-.46,6.46,6.46,0,0,0,.68-5.07A10.59,10.59,0,0,0,107.8,237.64Z"/><path class="cls-1" d="M126.19,164.07a9.4,9.4,0,0,0-3.33-6c-.63-.4-.22-1-1.21-2.07s-3.6-2.34-6.88-2.29-4.22,3-3.89,3.15a.66.66,0,0,1,.37.45c-.8-.13-.57.87,1,2.08s4.54,2.64,5.39,2.39a1.57,1.57,0,0,1,1.65.67,2,2,0,0,1,.37.77,1.94,1.94,0,0,1,0,.72,4.58,4.58,0,0,1-2.14,2.58c-1.19.88-2.46,1.6-3.67,2.46a52.59,52.59,0,0,1-6.93,3.59c2,.94,4.21,2,6.26,3.05,1.37-.52,2.75-1,4-1.57C123,171.67,126.55,167.36,126.19,164.07Zm-11.27-7.83c-.52,0-1-.22-1-.5s.43-.51,1-.51,1,.23,1,.51S115.44,156.24,114.92,156.24Z"/><path class="cls-1" d="M110.46,195.86l-.11-.08-1.2.76c-.87.56-1.66,1.09-2.4,1.59,3.78,2.63,5.85,4.67,6,7.31.08,2.12-2.83,5.27-6.1,8.52l.9.88,1.44,1.43c.53-.47,1-.88,1.37-1.19,2.25-1.88,6.25-6.19,6.57-9.58S113.83,198.4,110.46,195.86Z"/><path class="cls-1" d="M114.91,177.4c-5.94-3.39-13.76-6.33-16.77-8.46-1.2-.86-2.48-1.58-3.67-2.46a4.58,4.58,0,0,1-2.14-2.58,1.75,1.75,0,0,1,0-.72,2,2,0,0,1,.36-.77,1.57,1.57,0,0,1,1.65-.67c.85.25,3.77-1.17,5.39-2.39s1.85-2.21,1-2.08a.66.66,0,0,1,.38-.45c.32-.15-.62-3.1-3.9-3.15s-5.89,1.17-6.87,2.29-.59,1.67-1.22,2.07a9.41,9.41,0,0,0-3.32,6c-.36,3.29,3.19,7.6,8.89,9.94s12.9,4.61,15.42,6,7,4.51,3.55,7.15-8.77,6.19-12.14,8.72-6.74,6.24-6.42,9.64,4.31,7.7,6.56,9.58,8,7.15,8.58,8.77,1.66,3.09-.94,6.64c-.18.25-.37.49-.55.73-1,1.32-2.12,2.61-3.08,4a18.64,18.64,0,0,0-2.6,5.08,12.63,12.63,0,0,0-.55,3,14.23,14.23,0,0,0,0,1.6,7.56,7.56,0,0,0,.84,3,4.85,4.85,0,0,0,.65,1.07c.07-.08-.69-2.33-.82-3.33a11.47,11.47,0,0,1,2.58-7.91c2.36-3.09,6.54-6.28,7.44-8.62s2.11-4.71-2.29-9.53-11.78-10.75-11.64-14.1,3.41-5.73,9.34-9.58c2.42-1.57,4.93-3,7.29-4.64s4.76-4,4.61-7.22S117.35,178.8,114.91,177.4ZM97.14,155.23c.52,0,1,.23,1,.51s-.43.5-1,.5-1-.22-1-.5S96.62,155.23,97.14,155.23Z"/><path class="cls-1" d="M115.46,95.74a12.41,12.41,0,0,0-1.63-1.61,11.83,11.83,0,0,0-15,0,13.05,13.05,0,0,0-1.63,1.61,11.89,11.89,0,0,0,0,15.16,13.05,13.05,0,0,0,1.63,1.61,11.87,11.87,0,0,0,15,0,12.41,12.41,0,0,0,1.63-1.61,11.85,11.85,0,0,0,0-15.16ZM109.9,104h3.79v.72h-3.17l.09.11.49.55h2.59v.73h-2l.59.66h1.36v1.54h0v.1h0v2.31h-4.14l-3.37-4H99v-.66h6.65l-.62-.73H99v-.66h5.46l-.62-.73H99v-.66h4.27l-.62-.73H99v-.66h3.09l-3-3.5-.1-.12V96.1h4.14l.8.93,1.21,1.41,3.66,4.26v-.1h4.91v.73h-4.37Zm-1.12-2.06V96.1h4.91v5.84Z"/><text class="cls-2" transform="translate(189.41 172.49)">N<tspan class="cls-3" x="64.19" y="0">v</tspan><tspan class="cls-4" x="108.77" y="0">est</tspan></text><text class="cls-5" transform="translate(127.41 245.16)">H<tspan class="cls-6" x="59.24" y="0">E</tspan><tspan x="108.21" y="0">A</tspan><tspan class="cls-7" x="163.08" y="0">L</tspan><tspan class="cls-8" x="197.33" y="0">TH</tspan></text></svg>