<svg id="Layer_1" data-name="Layer 1" xmlns="http://www.w3.org/2000/svg" viewBox="0 0 1024 1024"><defs><style>.cls-1{fill:#fff;}.cls-2{fill:#1b2445;}</style></defs><title>vsa</title><path class="cls-1" d="M433.86,833.72c-58.62-13-108.39-41.28-147.92-83.93-31.57-34.06-56.68-77.31-74.65-128.54-30.52-87-25.8-168.26-25.79-169.07l7,.09c0,.8-4.7,81,25.46,166.85,27.7,78.88,87.91,179,217.42,207.77Z"/><ellipse class="cls-1" cx="448.86" cy="831.22" rx="14.98" ry="33.02" transform="translate(-447.65 1129) rotate(-80)"/><path class="cls-1" d="M770.88,452.22c0,161.79-131.16,342.55-292.94,342.55S185,614,185,452.22,316.15,159.28,477.94,159.28,770.88,290.44,770.88,452.22Z"/><path class="cls-1" d="M185,452.22l.06-15.2c.15-5.07.45-10.14.67-15.21l.09-1.9L186,418l.35-3.79.71-7.59c.2-2.53.56-5,.91-7.56l1-7.54a382.66,382.66,0,0,1,13.68-59.4c12.38-38.76,31.1-75.69,56.06-108.08s56.18-60.15,92.23-79.8a262.94,262.94,0,0,1,57-22.88,267.4,267.4,0,0,1,60.77-9.09A313.21,313.21,0,0,1,530,116.42a287.69,287.69,0,0,1,59.14,16.47,277.29,277.29,0,0,1,100.49,69.05,287,287,0,0,1,36.64,49A311.72,311.72,0,0,1,752,306.38a337.65,337.65,0,0,1,14.73,59.16l1.06,7.55c.33,2.51.77,5,1,7.55l.73,7.58.36,3.79c.13,1.26.25,2.53.28,3.8.22,5.07.53,10.13.68,15.2l.07,15.21-.6-15.19c-.33-5-.8-10.09-1.2-15.14l-.16-1.89-.23-1.88-.46-3.77-.92-7.53c-.26-2.51-.76-5-1.15-7.49l-1.25-7.48a335,335,0,0,0-16.12-58.3c-14.11-37.74-35.42-72.82-63.16-101.88a280.94,280.94,0,0,0-45.85-38.76,272,272,0,0,0-53.1-27.85C549.4,124.36,509,118,469,119.29A258.26,258.26,0,0,0,354.1,150.08,276.75,276.75,0,0,0,304.64,184,312.92,312.92,0,0,0,263,227.41a343.6,343.6,0,0,0-33,50.43,368.14,368.14,0,0,0-24.11,55.37,380.93,380.93,0,0,0-15.1,58.62l-1.22,7.48c-.41,2.5-.83,5-1.09,7.51l-.9,7.53c-.28,2.52-.67,5-.83,7.55-.39,5-.86,10.08-1.19,15.14Z"/><path class="cls-2" d="M233.36,552.18l-87-271.44h67.26l33,114.78c9.26,32.22,17.72,63.23,24.16,97.06H272c6.85-32.62,15.31-64.84,24.57-95.85l34.63-116h65.24L305.05,552.18Z"/><path class="cls-2" d="M381.86,534.17c16.51,8.46,41.88,16.92,68.06,16.92,28.19,0,43.09-11.68,43.09-29.4,0-16.92-12.89-26.58-45.51-38.26-45.1-15.71-74.5-40.68-74.5-80.14,0-46.32,38.66-81.76,102.69-81.76,30.61,0,53.16,6.45,69.27,13.7l-13.69,49.53a129.16,129.16,0,0,0-56.79-12.89C447.9,371.87,435,384,435,398.05c0,17.32,15.3,25,50.34,38.26C533.28,454,555.83,479,555.83,517.26c0,45.5-35,84.17-109.54,84.17-31,0-61.62-8.06-76.92-16.52Z"/><path class="cls-2" d="M613.38,622.67l-19.33,69.67H530.42l83-271.43h80.54l84.17,271.43h-66l-20.94-69.67Zm68.86-45.91-16.91-57.59c-4.83-16.11-9.67-36.24-13.69-52.35h-.81c-4,16.11-8.05,36.65-12.48,52.35l-16.11,57.59Z"/><path class="cls-2" d="M205.91,894.35l-9.53-29.19h4.07L205,879.54c1.25,3.94,2.33,7.49,3.11,10.91h.09c.82-3.37,2-7.05,3.33-10.87l4.94-14.42h4l-10.44,29.19Z"/><path class="cls-2" d="M234.45,865.16v29.19h-3.77V865.16Z"/><path class="cls-2" d="M248.05,865.55a39.19,39.19,0,0,1,7.23-.6c4,0,6.62.73,8.44,2.38a7.28,7.28,0,0,1,2.3,5.54,7.67,7.67,0,0,1-5.5,7.45v.13c2.25.78,3.59,2.86,4.28,5.89,1,4.07,1.65,6.89,2.26,8h-3.9a37.06,37.06,0,0,1-2-7c-.87-4-2.43-5.54-5.85-5.67h-3.55v12.64h-3.76Zm3.76,13.3h3.86c4,0,6.58-2.21,6.58-5.54,0-3.77-2.73-5.42-6.71-5.46a15.16,15.16,0,0,0-3.73.35Z"/><path class="cls-2" d="M284.29,868.37h-8.87v-3.21H297v3.21H288.1v26h-3.81Z"/><path class="cls-2" d="M311.06,865.16v17.28c0,6.54,2.9,9.31,6.8,9.31,4.33,0,7.1-2.85,7.1-9.31V865.16h3.81v17c0,9-4.72,12.65-11,12.65-6,0-10.48-3.42-10.48-12.47v-17.2Z"/><path class="cls-2" d="M345.58,885.17l-3,9.18h-3.89l9.91-29.19h4.55l10,29.19h-4l-3.12-9.18Zm9.57-2.94-2.86-8.4c-.65-1.91-1.09-3.64-1.52-5.33h-.09c-.43,1.73-.9,3.51-1.47,5.28l-2.86,8.45Z"/><path class="cls-2" d="M374.38,865.16h3.76v26h12.48v3.16H374.38Z"/><path class="cls-2" d="M417.51,889.76a13.36,13.36,0,0,0,6.76,1.91c3.85,0,6.1-2,6.1-5,0-2.73-1.56-4.29-5.5-5.81-4.76-1.68-7.71-4.15-7.71-8.27,0-4.54,3.77-7.92,9.44-7.92a13.25,13.25,0,0,1,6.46,1.43l-1,3.07a11.66,11.66,0,0,0-5.55-1.38c-4,0-5.5,2.38-5.5,4.37,0,2.73,1.78,4.07,5.81,5.63,4.93,1.9,7.45,4.29,7.45,8.57,0,4.51-3.34,8.4-10.22,8.4a15.07,15.07,0,0,1-7.45-1.86Z"/><path class="cls-2" d="M451.12,885.17l-3,9.18h-3.9l9.92-29.19h4.54l10,29.19h-4l-3.11-9.18Zm9.57-2.94-2.86-8.4c-.65-1.91-1.08-3.64-1.52-5.33h-.08c-.44,1.73-.91,3.51-1.48,5.28l-2.85,8.45Z"/><path class="cls-2" d="M479.92,865.16h3.77v26h12.47v3.16H479.92Z"/><path class="cls-2" d="M522.49,880.67H511.14v10.52h12.65v3.16H507.37V865.16h15.77v3.17h-12v9.22h11.35Z"/><path class="cls-2" d="M535.18,889.76a13.35,13.35,0,0,0,6.75,1.91c3.86,0,6.11-2,6.11-5,0-2.73-1.56-4.29-5.5-5.81-4.76-1.68-7.71-4.15-7.71-8.27,0-4.54,3.77-7.92,9.44-7.92a13.17,13.17,0,0,1,6.45,1.43l-1,3.07a11.7,11.7,0,0,0-5.55-1.38c-4,0-5.5,2.38-5.5,4.37,0,2.73,1.78,4.07,5.81,5.63,4.93,1.9,7.44,4.29,7.44,8.57,0,4.51-3.33,8.4-10.22,8.4a15,15,0,0,1-7.44-1.86Z"/><path class="cls-2" d="M585,885.17l-3,9.18h-3.9L588,865.16h4.55l10,29.19h-4l-3.12-9.18Zm9.57-2.94-2.85-8.4c-.65-1.91-1.09-3.64-1.52-5.33h-.09c-.43,1.73-.91,3.51-1.47,5.28l-2.86,8.45Z"/><path class="cls-2" d="M613.26,889.76a13.36,13.36,0,0,0,6.76,1.91c3.85,0,6.1-2,6.1-5,0-2.73-1.55-4.29-5.5-5.81-4.76-1.68-7.7-4.15-7.7-8.27,0-4.54,3.76-7.92,9.44-7.92a13.2,13.2,0,0,1,6.45,1.43l-1,3.07a11.61,11.61,0,0,0-5.54-1.38c-4,0-5.5,2.38-5.5,4.37,0,2.73,1.77,4.07,5.8,5.63,4.94,1.9,7.45,4.29,7.45,8.57,0,4.51-3.34,8.4-10.22,8.4a15.07,15.07,0,0,1-7.45-1.86Z"/><path class="cls-2" d="M641.63,889.76a13.36,13.36,0,0,0,6.76,1.91c3.85,0,6.1-2,6.1-5,0-2.73-1.56-4.29-5.5-5.81-4.76-1.68-7.71-4.15-7.71-8.27,0-4.54,3.77-7.92,9.44-7.92a13.25,13.25,0,0,1,6.46,1.43l-1,3.07a11.63,11.63,0,0,0-5.55-1.38c-4,0-5.5,2.38-5.5,4.37,0,2.73,1.78,4.07,5.81,5.63,4.93,1.9,7.45,4.29,7.45,8.57,0,4.51-3.34,8.4-10.22,8.4a15.07,15.07,0,0,1-7.45-1.86Z"/><path class="cls-2" d="M674.28,865.16v29.19h-3.76V865.16Z"/><path class="cls-2" d="M687.36,889.76a13.36,13.36,0,0,0,6.76,1.91c3.85,0,6.11-2,6.11-5,0-2.73-1.56-4.29-5.5-5.81-4.77-1.68-7.71-4.15-7.71-8.27,0-4.54,3.76-7.92,9.44-7.92a13.2,13.2,0,0,1,6.45,1.43l-1,3.07a11.61,11.61,0,0,0-5.54-1.38c-4,0-5.5,2.38-5.5,4.37,0,2.73,1.77,4.07,5.8,5.63,4.94,1.9,7.45,4.29,7.45,8.57,0,4.51-3.34,8.4-10.22,8.4a15.07,15.07,0,0,1-7.45-1.86Z"/><path class="cls-2" d="M721.79,868.37h-8.87v-3.21h21.61v3.21H725.6v26h-3.81Z"/><path class="cls-2" d="M746.26,885.17l-3,9.18h-3.9l9.92-29.19h4.55l10,29.19h-4l-3.12-9.18Zm9.57-2.94-2.85-8.4c-.65-1.91-1.09-3.64-1.52-5.33h-.09c-.43,1.73-.91,3.51-1.47,5.28L747,882.23Z"/><path class="cls-2" d="M775.06,894.35V865.16h4.12l9.35,14.77a81.58,81.58,0,0,1,5.24,9.48l.09,0c-.35-3.9-.44-7.45-.44-12V865.16H797v29.19h-3.82l-9.26-14.81a91.74,91.74,0,0,1-5.46-9.74l-.13,0c.22,3.68.3,7.19.3,12v12.47Z"/><path class="cls-2" d="M816.12,868.37h-8.88v-3.21h21.61v3.21h-8.92v26h-3.81Z"/></svg>