<svg id="Layer_1" data-name="Layer 1" xmlns="http://www.w3.org/2000/svg" viewBox="0 0 1282 424"><defs><style>.cls-1{fill:#041a71;}</style></defs><title>Weekly Logo-01</title><path class="cls-1" d="M215,70.62c0-17.67-14.62-35.27-15.31-36a51.6,51.6,0,0,0-36.49-15.3c-.11,0-.16-.11-.26-.11H89.26v74H215Z"/><path class="cls-1" d="M684.21,19.24H630L537.67,126.52h-99l15-16.65h30.84V70.52c-.79-28.34-23.5-51.28-52-51.28h-75l-75.22,90.63H21.5v16.65h246L253,143.43H21.5v16.38H240l-13.34,16.68H21.5V193.1H212.4L198,209.79H21.5v16.63H89.26V396.56h87c12.11-1.13,23.35-5.31,31.73-13.16.42-.39,156.61-173.61,156.61-173.61H466.35l-14.28,16.64H357.45V396.56h84.06c13.61-.09,25.63-5.89,34.92-14.51.47-.44,260.19-305.59,260.19-305.59V71.65a52.4,52.4,0,0,0-52.39-52.41ZM480.67,193.1H379.85l14.84-16.61H494.93Zm28.58-33.29H406.9l15-16.38H523.3Z"/><path class="cls-1" d="M764.17,301.59q-23,21.72-53.9,21.71t-51.13-19.06q-20.19-19-20.19-51.12t20.57-51a69.39,69.39,0,0,1,48.6-18.94q28,0,47.59,16.92t19.56,46.45v20.19h-99q1.77,11.11,11.61,18.18A37.13,37.13,0,0,0,710.14,292q19.93,0,32.82-13.38Zm-36.36-80.53a28.69,28.69,0,0,0-19.06-6.56,34.05,34.05,0,0,0-20.57,6.81,26.09,26.09,0,0,0-10.86,18.43H736.9Q735.64,227.62,727.81,221.06Z"/><path class="cls-1" d="M907.56,301.59q-23,21.72-53.9,21.71t-51.12-19.06q-20.2-19-20.2-51.12t20.58-51a69.32,69.32,0,0,1,48.59-18.94q28,0,47.59,16.92t19.57,46.45v20.19h-99q1.77,11.11,11.62,18.18A37.14,37.14,0,0,0,853.53,292q20,0,32.82-13.38Zm-36.35-80.53a28.73,28.73,0,0,0-19.07-6.56,34.05,34.05,0,0,0-20.57,6.81,26.09,26.09,0,0,0-10.86,18.43h59.58Q879,227.62,871.21,221.06Z"/><path class="cls-1" d="M971.18,321.29H933.31V134h37.87v96.19l42.16-44.94h47.71l-51.75,55,53.77,81h-44.94l-34.58-52-12.37,12.87Z"/><path class="cls-1" d="M1108.76,321.29h-37.87V134h37.87Z"/><path class="cls-1" d="M1155.46,374.81q-19.93,0-37.61-16.16l17.16-28q9.6,9.33,19.7,9.34,5.3,0,9.08-5.18a18.27,18.27,0,0,0,3.79-11q0-5.81-52.51-138.35h40.39L1188.54,270l33.07-84.58H1262l-63.11,160.06a45.2,45.2,0,0,1-17.3,21.59A46.64,46.64,0,0,1,1155.46,374.81Z"/></svg>